<?xml version="1.0" encoding="UTF-8" standalone="no"?>
<!-- Created with Inkscape (http://www.inkscape.org/) -->

<svg
   width="210mm"
   height="297mm"
   viewBox="0 0 210 297"
   version="1.1"
   id="svg5"
   inkscape:export-filename="bob.png"
   inkscape:export-xdpi="96"
   inkscape:export-ydpi="96"
   inkscape:version="1.2 (dc2aedaf03, 2022-05-15)"
   sodipodi:docname="bob.svg"
   xmlns:inkscape="http://www.inkscape.org/namespaces/inkscape"
   xmlns:sodipodi="http://sodipodi.sourceforge.net/DTD/sodipodi-0.dtd"
   xmlns="http://www.w3.org/2000/svg"
   xmlns:svg="http://www.w3.org/2000/svg"
   xmlns:rdf="http://www.w3.org/1999/02/22-rdf-syntax-ns#"
   xmlns:cc="http://creativecommons.org/ns#"
   xmlns:dc="http://purl.org/dc/elements/1.1/">
  <title
     id="title23703">bob</title>
  <sodipodi:namedview
     id="namedview7"
     pagecolor="#ffffff"
     bordercolor="#000000"
     borderopacity="0.25"
     inkscape:showpageshadow="2"
     inkscape:pageopacity="0.0"
     inkscape:pagecheckerboard="0"
     inkscape:deskcolor="#d1d1d1"
     inkscape:document-units="mm"
     showgrid="false"
     inkscape:zoom="1.1376503"
     inkscape:cx="318.19972"
     inkscape:cy="509.82275"
     inkscape:window-width="1920"
     inkscape:window-height="1057"
     inkscape:window-x="-8"
     inkscape:window-y="-8"
     inkscape:window-maximized="1"
     inkscape:current-layer="layer1" />
  <defs
     id="defs2" />
  <g
     inkscape:label="Layer 1"
     inkscape:groupmode="layer"
     id="layer1">
    <path
       id="rect184"
       style="fill:#9ce4a6;fill-opacity:1;stroke:#000000;stroke-width:1.799;stroke-dasharray:none;stroke-opacity:1"
       d="m 89.955904,94.727035 c -20.588988,0 -26.16176,17.124185 -30.884749,37.164135 l -6.27939,26.64386 -0.0026,-0.004 c 0.0011,0.0662 0.0015,0.13185 0.0026,0.19792 v 1.24695 c -0.01437,0.56504 -0.05652,1.12545 -0.167432,1.68 -0.08363,0.41818 0.103283,0.90254 0,1.31568 -0.09811,0.39245 -0.200241,0.76558 -0.328662,1.15084 -0.05553,0.1666 0.117385,0.70478 0,0.82217 -0.03876,0.0388 -0.12557,-0.0388 -0.164331,0 -0.13126,0.13126 0.08627,0.65016 0,0.82269 -0.186521,0.37304 -0.142923,0.77832 -0.329179,1.15083 -0.07188,0.14377 0.03472,0.51897 0,0.65784 -0.07101,0.28402 -0.23587,0.54381 -0.328662,0.82218 -0.03467,0.10401 0.04903,0.23112 0,0.32918 -0.03467,0.0693 -0.139818,0.0908 -0.164331,0.16433 -0.06934,0.20802 0.043,0.44283 0,0.65784 -0.05789,0.28947 -0.271285,0.5327 -0.329179,0.82217 -0.03225,0.16126 0.03988,0.33396 0,0.49351 -0.01881,0.0752 -0.129662,0.095 -0.164331,0.16433 -0.132019,0.26403 -0.225529,0.54576 -0.329179,0.82217 -0.425918,1.13578 -0.796288,2.42795 -1.480013,3.45354 -1.582833,2.37425 -3.328448,4.66374 -4.933549,7.0714 -0.165875,0.24881 -0.47994,0.42064 -0.657841,0.65784 -0.498676,0.6649 -1.04099,1.315 -1.480013,1.97353 0.405802,0.49788 -0.446955,0.28262 -0.492993,0.32866 -0.03876,0.0388 0.03041,0.11924 0,0.16485 -0.194643,0.29196 -0.664222,0.50524 -0.822689,0.82217 -0.526416,1.05283 -1.687748,1.86117 -2.466516,2.79569 -0.605208,0.72625 -1.075721,1.54403 -1.644344,2.30219 -0.396875,0.52917 0.300239,-0.56482 -0.49351,0.49351 -0.226991,0.30265 -0.10219,0.51952 -0.329179,0.82217 -1.305908,1.74121 -1.808675,3.04529 -1.808675,5.26221 0,0.68741 -0.12353,1.56214 0.164331,2.13785 0.06578,0.13156 -0.06578,0.36195 0,0.49351 0.06934,0.13868 0.280147,0.18209 0.329179,0.32918 0.03467,0.10401 -0.03467,0.22467 0,0.32867 0.10436,0.31309 0.732169,0.73217 0.986503,0.9865 1.664653,1.66466 3.867787,2.24141 6.0849,2.79569 0.36115,0.0903 0.789683,-0.0903 1.150834,0 1.787359,0.44684 5.195339,0.16485 7.236251,0.16485 h 5.590873 c 0.82915,0 2.476118,-0.20328 3.289205,0 1.613086,0.40327 3.577386,0.16433 5.262728,0.16433 h 6.248714 c 0.881427,0 1.940251,0.17109 2.795695,0 0.120195,-0.024 0.207835,-0.147 0.329179,-0.16433 1.163993,-0.16629 2.431942,0 3.617867,0 h 5.996533 c 2.265014,0.42817 4.602755,0.65474 6.995955,0.65474 h 21.048326 c 1.68052,0 3.33349,-0.11205 4.9537,-0.32608 h 7.10861 c 1.18593,0 2.45388,-0.16629 3.61787,0 0.12135,0.0173 0.20898,0.14033 0.32918,0.16433 0.85543,0.17109 1.91426,0 2.79569,0 h 6.24923 c 1.68534,0 3.64913,0.23894 5.26221,-0.16433 0.81309,-0.20328 2.46006,0 3.28921,0 h 5.59139 c 2.04092,0 5.44837,0.28251 7.23573,-0.16433 0.36115,-0.0903 0.7902,0.0903 1.15135,0 2.21711,-0.55428 4.41974,-1.13103 6.08439,-2.79569 0.25434,-0.25433 0.88266,-0.67342 0.98702,-0.98651 0.0347,-0.104 -0.0347,-0.22516 0,-0.32917 0.049,-0.14709 0.25936,-0.18999 0.32866,-0.32867 0.0658,-0.13156 -0.0658,-0.36195 0,-0.49351 0.28786,-0.57572 0.16485,-1.45044 0.16485,-2.13785 0,-2.21692 -0.50329,-3.52152 -1.8092,-5.26273 -0.22699,-0.30265 -0.10219,-0.51952 -0.32918,-0.82217 -0.79374,-1.05833 -0.0961,0.0357 -0.49299,-0.49351 -0.56862,-0.75816 -1.03965,-1.57594 -1.64486,-2.30219 -0.77877,-0.93451 -1.94011,-1.74286 -2.46652,-2.79569 -0.15847,-0.31693 -0.62753,-0.53021 -0.82217,-0.82217 -0.0304,-0.0456 0.0388,-0.12553 0,-0.16433 -0.046,-0.046 -0.89931,0.1687 -0.49351,-0.32918 -0.43902,-0.65853 -0.98133,-1.30811 -1.48001,-1.97301 -0.1779,-0.2372 -0.49197,-0.40903 -0.65784,-0.65784 -1.60511,-2.40766 -3.35071,-4.69715 -4.93355,-7.0714 -0.68372,-1.02559 -1.0541,-2.31776 -1.48001,-3.45354 -0.10365,-0.27641 -0.19716,-0.55814 -0.32918,-0.82217 -0.0347,-0.0693 -0.14553,-0.0897 -0.16433,-0.16485 -0.0399,-0.15955 0.0323,-0.33173 0,-0.49299 -0.0579,-0.28947 -0.27077,-0.53322 -0.32867,-0.82269 -0.043,-0.21501 0.0693,-0.44982 0,-0.65784 -0.0245,-0.0735 -0.12963,-0.095 -0.16433,-0.16433 -0.049,-0.0981 0.0347,-0.22465 0,-0.32866 -0.0928,-0.27837 -0.25818,-0.53816 -0.32918,-0.82218 -0.0347,-0.13887 0.0719,-0.51407 0,-0.65784 -0.0231,-0.0462 -0.0425,-0.0929 -0.0594,-0.14004 l -5.34911,-34.98389 C 139.70733,111.7713 131.59322,94.727035 111.00423,94.727035 Z"
       sodipodi:nodetypes="ssccccsssscsssssssssssssscsssssssssssssscsssssscscsscsscsssssscsssscsssssssscsssssscssccsscsss" />
    <path
       id="path2024"
       style="fill:#9ce4a6;fill-opacity:1;stroke:#000000;stroke-width:1.2859;stroke-dasharray:none;stroke-opacity:1"
       d="m 95.476167,59.044847 c -12.528261,-0.0077 -15.92486,9.245868 -18.805303,20.075434 l -3.82937,14.398019 -0.0016,-0.0021 c 6.5e-4,0.03577 0.0011,0.07124 0.0015,0.106949 l -4.07e-4,0.674199 c -0.0088,0.305392 -0.03466,0.608268 -0.102326,0.907956 -0.05104,0.225988 0.06255,0.487636 -4.29e-4,0.710895 -0.05982,0.212077 -0.122394,0.413993 -0.200662,0.622175 -0.03384,0.09002 0.0712,0.380642 -2.68e-4,0.444047 -0.0236,0.02096 -0.076,-0.02102 -0.0996,-6.2e-5 -0.0799,0.0709 0.0523,0.351354 -2.68e-4,0.444572 -0.11362,0.201555 -0.08721,0.420906 -0.200663,0.622174 -0.0438,0.07768 0.02096,0.280404 -2.15e-4,0.355449 -0.04331,0.153481 -0.144001,0.294027 -0.200555,0.444449 -0.02113,0.05622 0.02975,0.124742 -1.07e-4,0.177724 -0.02112,0.03744 -0.08527,0.04881 -0.100194,0.08855 -0.04227,0.112406 0.02602,0.239779 -2.14e-4,0.355974 -0.03531,0.156431 -0.165234,0.287488 -0.200556,0.443923 -0.01968,0.08715 0.02416,0.180626 -1.62e-4,0.266846 -0.01147,0.0406 -0.07854,0.0516 -0.09965,0.0891 -0.08043,0.14266 -0.137392,0.29456 -0.200555,0.44392 -0.259538,0.61372 -0.485494,1.31228 -0.901871,1.86635 -0.963918,1.28265 -2.026948,2.5193 -3.004425,3.81999 -0.101012,0.13445 -0.291912,0.22709 -0.400243,0.35521 -0.303657,0.3592 -0.634033,0.71056 -0.901389,1.06631 0.246765,0.26925 -0.271965,0.15267 -0.299993,0.17753 -0.02359,0.0209 0.01846,0.064 -5.3e-5,0.0886 -0.118534,0.15774 -0.404455,0.27301 -0.500983,0.44426 -0.320666,0.56885 -1.027792,1.00519 -1.501973,1.51 -0.368502,0.39229 -0.654843,0.8344 -1.001096,1.24397 -0.241666,0.28587 0.182745,-0.30506 -0.30059,0.26667 -0.13822,0.16348 -0.06232,0.28041 -0.200555,0.44392 -0.795203,0.94061 -1.101478,1.64522 -1.102201,2.84344 -2.24e-4,0.37152 -0.07552,0.84425 0.09945,1.15553 0.04,0.0712 -0.04016,0.19571 -1.62e-4,0.26685 0.04216,0.075 0.170391,0.0982 0.200181,0.17784 0.02107,0.0562 -0.02117,0.12148 -1.07e-4,0.17772 0.04112,0.10979 0.204783,0.23649 0.364982,0.35464 a 39.717966,8.6450676 0.03536861 0 0 39.630605,8.12266 39.717966,8.6450676 0.03536861 0 0 39.58587,-7.94067 c 0.13987,-0.10505 0.27149,-0.21423 0.30716,-0.30912 0.0211,-0.0562 -0.021,-0.12203 1.1e-4,-0.17825 0.0298,-0.0795 0.15762,-0.10266 0.19983,-0.1776 0.0399,-0.0712 -0.0399,-0.19525 1.6e-4,-0.26633 0.17535,-0.31107 0.10066,-0.78389 0.1009,-1.15539 7.2e-4,-1.19824 -0.30527,-1.90373 -1.09934,-2.84533 -0.138,-0.16366 -0.0619,-0.28102 -0.20002,-0.44468 -0.48263,-0.57234 -0.0585,0.0197 -0.29971,-0.26652 -0.34576,-0.40999 -0.6321,-0.85245 -1.00014,-1.24521 -0.47356,-0.50539 -1.17964,-0.94259 -1.49961,-1.51184 -0.0963,-0.17135 -0.3821,-0.287 -0.50046,-0.44489 -0.0185,-0.0246 0.0236,-0.0677 5e-5,-0.0886 -0.028,-0.0248 -0.54684,0.0911 -0.29975,-0.1779 -0.26693,-0.35609 -0.59688,-0.70733 -0.90011,-1.0669 -0.10819,-0.12825 -0.29951,-0.22169 -0.40037,-0.35621 -0.97588,-1.30194 -2.03688,-2.53988 -2.99926,-3.82373 -0.4157,-0.55458 -0.64083,-1.25287 -0.89962,-1.86691 -0.0628,-0.14944 -0.11976,-0.30194 -0.20002,-0.44469 -0.0211,-0.0375 -0.0887,-0.0486 -0.1,-0.0892 -0.0241,-0.0863 0.0199,-0.17915 1.6e-4,-0.26632 -0.035,-0.156478 -0.16432,-0.288219 -0.19948,-0.444695 -0.026,-0.116227 0.0425,-0.243515 2.1e-4,-0.355973 -0.0148,-0.03974 -0.0791,-0.05118 -0.1,-0.08867 -0.0297,-0.05304 0.0212,-0.121495 1e-4,-0.177724 -0.0563,-0.150491 -0.15693,-0.290637 -0.20003,-0.444172 -0.021,-0.07506 0.0438,-0.278241 2.3e-4,-0.355973 -0.0141,-0.02498 -0.0257,-0.05002 -0.036,-0.07551 l -3.2438,-18.910494 c -1.88682,-11.001222 -6.81861,-20.216555 -19.34689,-20.22428 z" />
    <path
       id="path2809"
       style="fill:#000000;fill-opacity:1;stroke:#000000;stroke-width:0.334409;stroke-dasharray:none;stroke-opacity:1"
       d="m 96.967429,69.225149 c -9.35357,0 -11.88529,6.581772 -14.03095,14.284002 l -2.85251,10.240192 -10e-4,-0.0016 c 5e-4,0.02544 8.7e-4,0.05068 10e-4,0.07605 v 0.479427 c -0.006,0.21717 -0.0256,0.432558 -0.076,0.645697 -0.038,0.160724 0.0469,0.346734 0,0.505523 -0.0446,0.150835 -0.0912,0.294446 -0.14953,0.442517 -0.0252,0.06404 0.0533,0.270649 0,0.315767 -0.0176,0.01491 -0.0567,-0.01491 -0.0744,0 -0.0596,0.05044 0.0392,0.249828 0,0.316138 -0.0847,0.143376 -0.0649,0.299348 -0.14953,0.442518 -0.0327,0.05526 0.0158,0.199388 0,0.252762 -0.0323,0.10916 -0.10738,0.209148 -0.14954,0.316139 -0.0158,0.04 0.0223,0.0887 0,0.126379 -0.0158,0.02665 -0.0636,0.03476 -0.0748,0.063 -0.0315,0.07995 0.0195,0.170498 0,0.253135 -0.0263,0.111255 -0.12323,0.20451 -0.14953,0.315769 -0.0146,0.06201 0.0181,0.128426 0,0.189746 -0.008,0.0289 -0.0586,0.0368 -0.0743,0.0634 -0.06,0.10149 -0.10244,0.20953 -0.14953,0.31578 -0.1935,0.43653 -0.36188,0.93338 -0.6725,1.32755 -0.71908,0.91252 -1.51218,1.79238 -2.24137,2.71774 -0.0754,0.0956 -0.21784,0.16162 -0.29866,0.25277 -0.22655,0.25555 -0.47305,0.50555 -0.6725,0.75866 0.18436,0.19135 -0.20297,0.10867 -0.22389,0.12637 -0.0176,0.015 0.0138,0.0454 0,0.063 -0.0884,0.11223 -0.30184,0.19432 -0.37383,0.31614 -0.23915,0.40466 -0.7669,0.71523 -1.12069,1.07443 -0.27495,0.27914 -0.48853,0.59364 -0.74686,0.88503 -0.18029,0.20339 0.1363,-0.21701 -0.2243,0.18975 -0.1031,0.11632 -0.0464,0.19944 -0.14953,0.31578 -0.59327,0.66922 -0.82162,1.1704 -0.82162,2.02246 0,0.2642 -0.056,0.60039 0.0748,0.82166 0.0299,0.0506 -0.0299,0.13921 0,0.18976 0.0315,0.0533 0.12726,0.0698 0.14954,0.12638 0.0157,0.0402 -0.0158,0.0864 0,0.12637 0.0308,0.078 0.15299,0.1681 0.27265,0.25203 a 29.653329,6.1475582 0 0 0 29.591761,5.7587 29.653329,6.1475582 0 0 0 29.55112,-5.66401 c 0.10432,-0.0748 0.20259,-0.15247 0.22918,-0.21996 0.0157,-0.0401 -0.0157,-0.0868 0,-0.12676 0.0223,-0.0566 0.11763,-0.073 0.14914,-0.12637 0.0298,-0.0506 -0.0299,-0.13883 0,-0.18939 0.13077,-0.22128 0.0747,-0.55747 0.0747,-0.82164 0,-0.85209 -0.22877,-1.35363 -0.82204,-2.02286 -0.10302,-0.11632 -0.0464,-0.1998 -0.14953,-0.31613 -0.3606,-0.40679 -0.0437,0.014 -0.22389,-0.18939 -0.25832,-0.29139 -0.4723,-0.60591 -0.74725,-0.88503 -0.3538,-0.35919 -0.88114,-0.66978 -1.12029,-1.07442 -0.0719,-0.12182 -0.28542,-0.20393 -0.37383,-0.31615 -0.0139,-0.0175 0.0175,-0.0481 0,-0.063 -0.0208,-0.0177 -0.40826,0.0649 -0.2239,-0.12639 -0.19945,-0.25309 -0.44593,-0.50272 -0.6725,-0.75828 -0.0808,-0.0911 -0.22372,-0.15751 -0.29906,-0.25315 -0.7292,-0.92536 -1.52188,-1.80521 -2.24097,-2.71773 -0.31061,-0.39418 -0.47899,-0.89065 -0.67249,-1.32718 -0.047,-0.10624 -0.0897,-0.21466 -0.14954,-0.31614 -0.0157,-0.0267 -0.0663,-0.0345 -0.0748,-0.0634 -0.018,-0.0613 0.0146,-0.12741 0,-0.18939 -0.0263,-0.111248 -0.12281,-0.204875 -0.14913,-0.316134 -0.0195,-0.08263 0.0315,-0.17318 0,-0.253132 -0.0112,-0.02825 -0.0592,-0.03635 -0.0747,-0.063 -0.0221,-0.03771 0.0157,-0.08641 0,-0.126384 -0.0421,-0.106987 -0.11731,-0.206602 -0.14953,-0.315763 -0.0157,-0.05337 0.0325,-0.197878 0,-0.253136 -0.0108,-0.01775 -0.0192,-0.03557 -0.0268,-0.05367 L 120.98344,83.59822 c -1.41375,-7.822188 -5.09997,-14.3731 -14.45354,-14.3731 z" />
    <ellipse
       style="fill:#ffffff;fill-opacity:1;stroke:#000000;stroke-width:0.444;stroke-dasharray:none;stroke-opacity:1"
       id="path2863"
       cx="94.970932"
       cy="88.228401"
       rx="3.0423589"
       ry="6.0024915" />
    <ellipse
       style="fill:#ffffff;fill-opacity:1;stroke:#000000;stroke-width:0.444;stroke-dasharray:none;stroke-opacity:1"
       id="ellipse2865"
       cx="108.12708"
       cy="88.06395"
       rx="3.0423589"
       ry="6.0024915" />
    <path
       style="fill:none;fill-opacity:1;stroke:#ffffff;stroke-width:0.913;stroke-dasharray:none;stroke-opacity:1"
       d="m 92.04427,105.43493 c 0.711768,-0.52472 1.246968,-1.18139 2.052189,-1.65217 0.419335,-0.24515 0.942018,-0.46994 1.395211,-0.67997 0.901201,-0.41765 -0.170823,0.103 0.48,-0.12221 0.04245,-0.0142 0.05922,-0.0498 0.08885,-0.0745 0.09483,-0.0326 0.187909,-0.0681 0.284423,-0.0983 1.559035,-0.48826 3.191554,-0.70799 4.844667,-0.90969 0.8564,-0.10449 1.91076,-0.34575 2.74701,-0.27153 0.0956,0.008 0.19567,-0.0368 0.29337,-0.0358 0.1029,4.8e-4 0.20003,0.023 0.30231,0.0268 0.1251,0.005 0.26775,-0.0588 0.39114,-0.0477 0.045,0.003 0.0617,0.0466 0.10673,0.0506 0.12336,0.0108 0.26605,-0.0523 0.39116,-0.0477 0.15613,-0.14708 0.30826,0.0685 0.40907,0.0776 0.0637,0.006 0.13183,-0.0296 0.19558,-0.0238 0.045,0.003 0.0711,0.0338 0.10673,0.0506 0.0682,0.0128 0.13219,0.036 0.2045,0.0387 0.14062,0.005 0.49333,6.5e-4 0.60466,0.0537 0.0252,0.0119 -0.0162,0.0508 0.009,0.0626 0.0448,0.0212 0.24035,0.0152 0.3023,0.0268 0.21387,0.0405 0.37782,0.17946 0.5337,0.25348 0.0568,0.1496 0.21132,6.5e-4 0.30231,0.0268 0.20895,0.06 0.42253,0.18149 0.63149,0.24154 0.16472,0.0474 0.71784,0.049 0.80915,0.0924 0.0534,0.0253 0.0623,0.0879 0.11572,0.1134 0.0356,0.0168 0.26674,0.01 0.3023,0.0268 0.0503,0.024 -0.0324,0.10128 0.0179,0.12533 0.0252,0.0119 0.0726,-0.0239 0.0978,-0.0119 0.0503,0.024 -0.0166,0.0914 0.0179,0.12533 0.0788,0.0771 0.28293,0.34778 0.44486,0.32802"
       id="path2984" />
    <path
       id="path9648"
       style="fill:#000000;fill-opacity:1;stroke:#000000;stroke-width:0.913;stroke-dasharray:none;stroke-opacity:1"
       d="m 101.40049,125.2391 c 0,0.35574 -0.006,0.59881 -0.11627,0.93018 -0.13219,0.39657 0.0216,0.8655 -0.11627,1.27899 -0.14041,0.42123 0,1.21005 0,1.62832 0,0.44837 0.004,0.65239 0.008,0.75965 -0.0107,-0.11126 -0.0421,-0.20754 -0.12454,0.2868 -0.11429,0.68464 0.02,1.41158 -0.11628,2.0929 -0.19996,0.99983 -0.29881,2.02596 -0.46508,3.02359 -0.0775,0.46511 -0.23806,0.95221 -0.34882,1.39526 -0.272169,1.08865 -0.0306,0.30529 -0.11627,1.16272 -0.127961,1.27958 -0.06897,0.1818 -0.232545,1.16324 -0.0446,0.26763 0.027,0.54391 0,0.8139 -0.08945,0.8945 -0.375688,1.78037 -0.465088,2.67425 -0.0347,0.34713 0.0493,0.70162 0,1.04697 -0.01738,0.12135 -0.09607,0.22791 -0.116272,0.34882 -0.08749,0.52504 -0.04057,1.09773 -0.116272,1.6278 -0.18161,1.27125 -0.483077,2.55251 -0.581877,3.83749 -0.200789,2.61025 0.315288,-1.47581 -0.116271,1.97662 -0.04725,0.37804 -0.185244,0.78519 -0.232544,1.16324 -0.08188,0.65506 -0.09218,1.3216 -0.232544,1.97662 -0.05913,0.27593 -0.180544,0.53655 -0.232544,0.81391 -0.06468,0.34498 -0.04396,0.70297 -0.116272,1.04644 -0.08337,0.396 -0.240506,0.77332 -0.348816,1.16324 -0.322503,1.16101 -0.613608,2.32741 -0.930176,3.48816 -0.131475,0.48207 -0.141784,0.89662 -0.232544,1.39578 -0.169236,0.93079 -0.438435,1.88335 -0.697632,2.79053 -0.50644,1.77255 -1.139709,3.49369 -1.744596,5.23275 -0.293989,0.84521 -0.49969,1.72059 -0.813904,2.5585 -0.134043,0.35745 -0.338033,0.68646 -0.465088,1.04645 -0.227682,0.6451 -0.339136,1.3312 -0.58136,1.97714 -0.286558,0.76415 -0.513035,1.57327 -0.813903,2.32544 -0.128759,0.32189 -0.340632,0.60659 -0.465088,0.93018 -0.369721,0.96127 -0.650841,1.95661 -1.046965,2.90731 -0.166679,0.40003 -0.395842,0.77107 -0.58136,1.16272 -0.847166,1.78846 -1.673882,3.58083 -2.557983,5.34903 -0.101079,0.20216 -0.254106,0.37666 -0.348816,0.58188 -0.138785,0.30069 -0.210031,0.62947 -0.348816,0.93017 -0.35905,0.77794 -0.854021,1.38459 -1.163236,2.20917 -0.09908,0.26422 -0.137635,0.54815 -0.232544,0.8139 -0.190903,0.53452 -0.667175,1.68369 -0.930176,2.20969 -0.07659,0.15317 -0.272226,0.31192 -0.348816,0.46509 -0.31524,0.63047 -0.57723,1.24269 -0.930176,1.86035 -0.279604,0.48931 -0.456691,1.03017 -0.697632,1.51205 -0.968321,1.93664 -2.287292,3.94196 -3.953764,5.34903 1.199518,-0.14994 0.629295,-0.27833 1.74408,-0.11628 l 6.505197,0.9456 c 0.967785,0.14068 2.172022,0.14938 3.14641,0.0411 0.158841,-0.0177 0.799281,0.2271 0.958443,0.21263 0.668482,-0.0608 0.71216,0.14276 1.374581,0.0482 0.573649,-0.082 1.075815,-0.13456 1.613673,-0.16446 0.739399,-0.0411 1.594238,0.18843 2.333023,0.13748 0.69771,-0.0388 1.354074,-0.32418 2.051783,-0.36295 0.23257,0 0.917568,0.42223 1.149875,0.41113 2.933575,-0.1397 0.3864,-0.0975 4.240265,-0.3077 3.44596,-0.18796 7.14743,0.21444 10.59644,0.18564 2.82932,-0.0236 4.73818,0.21526 7.66611,-0.52033 0.24119,-0.0606 1.72222,-0.0558 1.77864,0 0.0732,0.0724 6.79003,1.62994 0.89035,-1.78905 0.14989,0 0.21881,-0.004 0.26097,-0.008 -0.0503,0.012 -0.10868,0.0443 -0.0284,0.12454 0.15833,0.15832 0.72816,-2.51763 0.93018,0 0.15697,1.95626 0.0673,0.14994 0.23254,0.23254 0.39176,0.19588 0.86697,1.46594 1.34131,1.46594 -19.33376,-23.62499 -24.13836,-51.9123 -24.71459,-79.8423 z"
       sodipodi:nodetypes="ccssccssscsssccccscsssssssssssssssssssssssscsscscscccssssccsssccc" />
    <path
       style="fill:#2d5940;fill-opacity:1;stroke:#000000;stroke-width:0.498999;stroke-dasharray:none;stroke-opacity:1"
       d="m 43.490591,204.42903 c 1.474449,-1.14967 2.847618,-2.47893 3.95369,-3.95369 0.390718,-0.52095 1.004702,-0.87446 1.39542,-1.39542 0.379667,-0.50622 0.708306,-1.17344 1.162849,-1.62799 0.122577,-0.12257 0.342564,-0.10999 0.465141,-0.23257 0.323246,-0.32325 0.516617,-1.03323 0.697709,-1.39542 0.137376,-0.27475 0.526669,-0.44115 0.697711,-0.69771 0.135985,-0.20398 0.05922,-0.52436 0.232569,-0.69771 0.05482,-0.0548 0.177752,0.0548 0.232571,0 0.436264,-0.43626 0.678138,-1.12371 0.93028,-1.62799 0.48395,-0.9679 -0.01606,0.24863 0.465141,-0.23257 0.109632,-0.10963 -0.06934,-0.32646 0,-0.46514 0.366789,-0.73358 0.66114,-1.51829 0.930277,-2.3257 0.07355,-0.22063 -0.05641,-0.47208 0,-0.69771 0.104661,-0.41863 0.346964,-0.80832 0.46514,-1.16285 0.283853,-0.85155 0.388919,-2.09703 0.697712,-3.02341 0.206729,-0.62019 0.566767,-1.20584 0.697709,-1.86056 0.06335,-0.31677 -0.144079,-0.87469 0,-1.16285 0.296807,-0.59361 0.04015,-0.58558 0.232571,-1.16285 0.03467,-0.10401 0.197901,-0.12856 0.232569,-0.23257 0.157006,-0.47102 0,-1.37756 0,-1.86056 0,-0.85014 0.02722,-1.5043 0.232571,-2.3257 0.182407,-0.72963 -0.182409,-1.59607 0,-2.3257 0.364826,-1.45931 0.169032,-2.93829 0.46514,-4.41883 0.221663,-1.10831 0.473695,-2.34281 0.930278,-3.25598 0.10401,-0.20802 -0.05641,-0.47208 0,-0.69771 0.46767,-1.87067 -0.0077,0.48435 0.46514,-0.69771 1.078574,-2.69643 -0.159559,0.1731 0.232572,-1.39542 0.212661,-0.85064 0.709485,-1.41308 1.162849,-2.09313 0.306469,-0.4597 0.05224,-0.56961 0.232571,-0.93028 0.197697,-0.39539 0.680064,-0.78753 0.93028,-1.16285 0.57131,-0.0829 0.09658,-0.49373 0.232569,-0.69771 0.657447,-0.98617 1.480346,-2.17805 2.325701,-3.02341 0.564867,-0.56487 0.341511,0.0692 0.697709,-0.46514 0.141634,-0.21245 0.198519,-0.5644 0.46514,-0.69771 0.137324,-0.0687 0.853133,-0.38799 0.93028,-0.46514 0.19168,-0.19168 0.232571,-0.87175 0.232571,-0.46514 0,0.78435 -0.161417,0.5554 -0.46514,1.16285 -0.06934,0.13868 0.06934,0.32646 0,0.46514 -0.734459,1.46892 0.269317,-1.00378 -0.46514,0.46514 -0.03467,0.0693 0.05482,0.17775 0,0.23257 -0.05482,0.0548 -0.177752,-0.0548 -0.232571,0 -0.07752,0.0775 -0.155046,0.62019 -0.232569,0.69771 -0.05482,0.0548 -0.177752,-0.0548 -0.232571,0 -0.07715,0.0771 -0.396478,0.79296 -0.46514,0.93028 -0.155747,0.3115 -0.554826,0.32226 -0.697709,0.46514 -0.109636,0.10964 0.109635,0.35551 0,0.46514 -0.05482,0.0548 -0.177753,-0.0548 -0.232572,0 -0.173246,0.17325 -0.333729,0.79887 -0.46514,0.93028 -0.05482,0.0548 -0.177752,-0.0548 -0.232569,0 -0.152468,0.15247 -0.116051,0.81376 -0.232568,0.93028 -0.05482,0.0548 -0.177755,-0.0548 -0.232572,0 -0.109635,0.10963 0.109636,0.35551 0,0.46514 -0.05482,0.0548 -0.177752,-0.0548 -0.232569,0 -0.10751,0.10751 0.07021,0.55729 0,0.69771 -0.04903,0.0981 -0.183541,0.13451 -0.232571,0.23257 -0.09682,0.19364 0.147521,0.78276 0,0.93028 -0.05482,0.0548 -0.177752,-0.0548 -0.232569,0 -0.0938,0.0938 -0.106103,1.14249 -0.232571,1.39542 -0.09806,0.19612 -0.395801,0.25713 -0.46514,0.46514 -0.07354,0.22064 0.10401,0.48969 0,0.69771 -0.515525,1.03105 -0.546296,2.10403 -0.93028,3.25598 -0.288986,0.86696 0,2.96712 0,3.95369 0,0.69386 -0.214122,4.92087 0,5.34911 0.277582,0.55517 0.387934,1.24101 0.697711,1.86056 0.04903,0.0981 0.1979,0.12856 0.232569,0.23257 0.115363,0.34609 0.07197,0.84165 0.232571,1.16285 0.03467,0.0693 0.177753,-0.0548 0.232569,0 0.0451,0.0451 0.871035,3.19232 0.93028,3.48855 0.296725,1.48363 0,3.36179 0,4.88397 0,0.9315 0.0528,1.70216 -0.232569,2.55827 -0.09303,0.27909 0.09303,0.6512 0,0.93028 -0.03467,0.10401 -0.183541,0.13451 -0.232571,0.23257 -0.349686,0.69937 -0.617937,1.77741 -0.93028,2.55827 -0.432112,0.17327 -0.137377,0.87727 -0.232569,1.16285 -0.06934,0.20802 -0.395801,0.25712 -0.46514,0.46514 -0.04903,0.14709 0.04903,0.31805 0,0.46514 -0.03884,0.11652 -0.423418,0.88856 -0.46514,0.93028 -0.05482,0.0548 -0.177753,-0.0548 -0.232572,0 -0.137488,0.13749 -0.402389,1.03735 -0.46514,1.16285 -0.06486,0.12973 -0.634783,0.86736 -0.697709,0.93028 -0.122576,0.12258 -0.368985,0.0883 -0.46514,0.23257 -0.08601,0.12901 0.06934,0.32646 0,0.46514 -0.03467,0.0693 -0.163232,-0.0347 -0.232569,0 -0.967901,0.48395 0.248624,-0.0161 -0.232571,0.46514 -0.05482,0.0548 -0.177752,-0.0548 -0.232569,0 -0.122862,0.12286 -0.574849,1.03999 -0.697711,1.16285 -0.05482,0.0548 -0.177753,-0.0548 -0.232569,0 -0.05482,0.0548 0.03467,0.16323 0,0.23257 -0.139544,0.27909 -0.558168,0.41863 -0.697711,0.69771 -0.03467,0.0693 0.05482,0.17775 0,0.23257 -0.175795,0.1758 -0.465141,0.10089 -0.465141,0.46514"
       id="path15641" />
    <path
       style="fill:#2d5940;fill-opacity:1;stroke:#000000;stroke-width:0.498999;stroke-dasharray:none;stroke-opacity:1"
       d="m 75.12011,169.7761 c -0.416745,1.96435 -0.232569,4.0357 -0.232569,6.04682 0,0.43403 0.04965,0.33187 0.232569,0.69771 0.139102,0.2782 -0.07321,0.87003 0,1.16285 0.04204,0.16817 0.190527,0.29697 0.232572,0.46514 0.314721,1.2589 -0.06424,3.70568 -0.232572,4.88397 -0.347223,2.43057 -1.90563,4.76408 -2.790841,6.9771 -0.06438,0.16095 -0.155046,0.31009 -0.232568,0.46514 -0.155046,0.23257 -0.355034,0.4408 -0.465141,0.69771 -0.12591,0.29379 -0.106658,0.63649 -0.232568,0.93028 -0.438185,1.02243 -1.138137,2.0437 -1.627992,3.02341 -0.250664,0.50133 -0.202986,1.10368 -0.46514,1.62799 -0.809149,1.6183 -1.795942,3.15905 -2.790839,4.6514 -0.268525,0.40279 -0.711676,0.72564 -0.93028,1.16285 -0.179718,0.35944 -0.285422,0.80341 -0.46514,1.16285 -0.135043,0.27009 -0.93028,1.42414 -0.93028,1.62799 0,0.0775 0.155046,0 0.232569,0 0.46514,0 0.93028,0 1.39542,0 0.247158,0 3.41635,-0.16037 3.48855,-0.23257 0.05482,-0.0548 -0.06934,-0.1979 0,-0.23257 0.310094,-0.15505 0.852757,0.15505 1.162851,0 0.15367,-0.0768 0.394219,-0.55587 0.465141,-0.69771 0.392051,-0.78411 -0.394619,-2.93188 0,-3.72112 0.191201,-0.3824 0.806143,-1.48815 0.93028,-1.86056 0.04903,-0.14709 -0.04903,-0.31805 0,-0.46514 0.129561,-0.38869 0.734523,-1.05285 0.930277,-1.39542 0.761238,-1.33217 0.239856,-0.48699 0.697712,-1.86056 -0.124754,-0.41548 0.366996,-0.43599 0.46514,-0.69771 1.153716,-3.07657 0.01587,-0.72946 0.697709,-2.09313 0.336661,-0.67332 0.389752,-0.85809 0.697712,-1.62799 0.206038,-0.5151 0.781878,-1.03439 0.93028,-1.62799 0.0376,-0.15042 -0.05758,-0.32118 0,-0.46514 0.103806,-0.25952 0.361331,-0.43819 0.465137,-0.69771 0.124817,-0.31204 0.120251,-0.82589 0.232572,-1.16285 0.188666,-0.566 0.554421,-1.05483 0.697709,-1.62799 0.125587,-0.50235 0.07107,-1.14347 0.232571,-1.62799 0.178258,-0.53478 0.369536,-1.05437 0.46514,-1.62799 0.14673,-0.88038 0,-1.89137 0,-2.79084 0,-0.7128 0.168902,-1.65008 0,-2.3257 -0.04204,-0.16817 -0.190526,-0.29697 -0.232571,-0.46514 -0.0376,-0.15042 0.06934,-0.32646 0,-0.46514 -0.03467,-0.0693 -0.177753,0.0548 -0.232569,0 -0.14982,-0.14982 0.07317,-0.71078 0,-0.93028 -0.477073,-1.43121 -1.037495,-2.52199 -1.39542,-3.95369 0.140176,-0.42094 -0.376751,-0.43254 -0.465141,-0.69771 -0.04903,-0.14709 0.150419,-0.42754 0,-0.46514 -0.310094,-0.0775 -0.829201,0.5358 -0.93028,0.23257 -0.178472,-0.53542 0.328258,-1.08046 0.46514,-1.62799 0.101606,-0.40641 0,-0.97451 0,-1.39542"
       id="path16369" />
    <path
       style="fill:#2d5940;fill-opacity:1;stroke:#000000;stroke-width:0.498999;stroke-dasharray:none;stroke-opacity:1"
       d="m 158.70413,206.07355 c -1.47445,-1.14967 -2.84762,-2.47893 -3.95369,-3.95369 -0.39072,-0.52095 -1.0047,-0.87446 -1.39542,-1.39542 -0.37967,-0.50622 -0.70831,-1.17344 -1.16285,-1.62799 -0.12258,-0.12257 -0.34257,-0.10999 -0.46514,-0.23257 -0.32325,-0.32325 -0.51662,-1.03323 -0.69771,-1.39542 -0.13738,-0.27475 -0.52667,-0.44115 -0.69771,-0.69771 -0.13599,-0.20398 -0.0592,-0.52436 -0.23257,-0.69771 -0.0548,-0.0548 -0.17775,0.0548 -0.23257,0 -0.43627,-0.43626 -0.67814,-1.12371 -0.93028,-1.62799 -0.48395,-0.9679 0.0161,0.24863 -0.46514,-0.23257 -0.10964,-0.10963 0.0693,-0.32646 0,-0.46514 -0.36679,-0.73358 -0.66114,-1.51829 -0.93028,-2.3257 -0.0736,-0.22063 0.0564,-0.47208 0,-0.69771 -0.10466,-0.41863 -0.34696,-0.80832 -0.46514,-1.16285 -0.28385,-0.85155 -0.38892,-2.09703 -0.69771,-3.02341 -0.20673,-0.62019 -0.56677,-1.20584 -0.69771,-1.86056 -0.0633,-0.31677 0.14408,-0.87469 0,-1.16285 -0.29681,-0.59361 -0.0401,-0.58558 -0.23257,-1.16285 -0.0347,-0.10401 -0.1979,-0.12856 -0.23257,-0.23257 -0.15701,-0.47102 0,-1.37756 0,-1.86056 0,-0.85014 -0.0272,-1.5043 -0.23257,-2.3257 -0.18241,-0.72963 0.18241,-1.59607 0,-2.3257 -0.36483,-1.45931 -0.16903,-2.93829 -0.46514,-4.41883 -0.22167,-1.10831 -0.4737,-2.34281 -0.93028,-3.25598 -0.10401,-0.20802 0.0564,-0.47208 0,-0.69771 -0.46767,-1.87067 0.008,0.48435 -0.46514,-0.69771 -1.07857,-2.69643 0.15956,0.1731 -0.23257,-1.39542 -0.21266,-0.85064 -0.70949,-1.41308 -1.16285,-2.09313 -0.30647,-0.4597 -0.0522,-0.56961 -0.23257,-0.93028 -0.1977,-0.39539 -0.68007,-0.78753 -0.93028,-1.16285 -0.57131,-0.0829 -0.0966,-0.49373 -0.23257,-0.69771 -0.65745,-0.98617 -1.48035,-2.17805 -2.3257,-3.02341 -0.56487,-0.56487 -0.34151,0.0692 -0.69771,-0.46514 -0.14164,-0.21245 -0.19852,-0.5644 -0.46514,-0.69771 -0.13733,-0.0687 -0.85313,-0.38799 -0.93028,-0.46514 -0.19168,-0.19168 -0.23257,-0.87175 -0.23257,-0.46514 0,0.78435 0.16141,0.5554 0.46514,1.16285 0.0693,0.13868 -0.0693,0.32646 0,0.46514 0.73446,1.46892 -0.26932,-1.00378 0.46514,0.46514 0.0347,0.0693 -0.0548,0.17775 0,0.23257 0.0548,0.0548 0.17775,-0.0548 0.23257,0 0.0775,0.0775 0.15504,0.62019 0.23257,0.69771 0.0548,0.0548 0.17775,-0.0548 0.23257,0 0.0771,0.0771 0.39648,0.79296 0.46514,0.93028 0.15575,0.3115 0.55482,0.32226 0.69771,0.46514 0.10963,0.10964 -0.10964,0.35551 0,0.46514 0.0548,0.0548 0.17775,-0.0548 0.23257,0 0.17325,0.17325 0.33373,0.79887 0.46514,0.93028 0.0548,0.0548 0.17775,-0.0548 0.23257,0 0.15247,0.15247 0.11605,0.81376 0.23257,0.93028 0.0548,0.0548 0.17775,-0.0548 0.23257,0 0.10963,0.10963 -0.10964,0.35551 0,0.46514 0.0548,0.0548 0.17775,-0.0548 0.23257,0 0.10751,0.10751 -0.0702,0.55729 0,0.69771 0.049,0.0981 0.18354,0.13451 0.23257,0.23257 0.0968,0.19364 -0.14752,0.78276 0,0.93028 0.0548,0.0548 0.17775,-0.0548 0.23257,0 0.0938,0.0938 0.1061,1.14249 0.23257,1.39542 0.0981,0.19612 0.3958,0.25713 0.46514,0.46514 0.0735,0.22064 -0.10401,0.48969 0,0.69771 0.51552,1.03105 0.54629,2.10403 0.93028,3.25598 0.28898,0.86696 0,2.96712 0,3.95369 0,0.69386 0.21412,4.92087 0,5.34911 -0.27758,0.55517 -0.38794,1.24101 -0.69771,1.86056 -0.049,0.0981 -0.1979,0.12856 -0.23257,0.23257 -0.11536,0.34609 -0.072,0.84165 -0.23257,1.16285 -0.0347,0.0693 -0.17776,-0.0548 -0.23257,0 -0.0451,0.0451 -0.87104,3.19232 -0.93028,3.48855 -0.29673,1.48363 0,3.36179 0,4.88397 0,0.9315 -0.0528,1.70216 0.23257,2.55827 0.093,0.27909 -0.093,0.6512 0,0.93028 0.0347,0.10401 0.18354,0.13451 0.23257,0.23257 0.34968,0.69937 0.61794,1.77741 0.93028,2.55827 0.43211,0.17327 0.13738,0.87727 0.23257,1.16285 0.0693,0.20802 0.3958,0.25712 0.46514,0.46514 0.049,0.14709 -0.049,0.31805 0,0.46514 0.0388,0.11652 0.42342,0.88856 0.46514,0.93028 0.0548,0.0548 0.17775,-0.0548 0.23257,0 0.13749,0.13749 0.40239,1.03735 0.46514,1.16285 0.0649,0.12973 0.63478,0.86736 0.69771,0.93028 0.12257,0.12258 0.36898,0.0883 0.46514,0.23257 0.086,0.12901 -0.0693,0.32646 0,0.46514 0.0347,0.0693 0.16323,-0.0347 0.23257,0 0.9679,0.48395 -0.24863,-0.0161 0.23257,0.46514 0.0548,0.0548 0.17775,-0.0548 0.23257,0 0.12286,0.12286 0.57485,1.03999 0.69771,1.16285 0.0548,0.0548 0.17775,-0.0548 0.23257,0 0.0548,0.0548 -0.0347,0.16323 0,0.23257 0.13954,0.27909 0.55817,0.41863 0.69771,0.69771 0.0347,0.0693 -0.0548,0.17775 0,0.23257 0.17579,0.1758 0.46514,0.10089 0.46514,0.46514"
       id="path17823" />
    <path
       style="fill:#2d5940;fill-opacity:1;stroke:#000000;stroke-width:0.498999;stroke-dasharray:none;stroke-opacity:1"
       d="m 126.39872,169.7761 c 0.41675,1.96435 0.23257,4.0357 0.23257,6.04682 0,0.43403 -0.0497,0.33187 -0.23257,0.69771 -0.1391,0.2782 0.0732,0.87003 0,1.16285 -0.042,0.16817 -0.19053,0.29697 -0.23257,0.46514 -0.31472,1.2589 0.0642,3.70568 0.23257,4.88397 0.34722,2.43057 1.90563,4.76408 2.79084,6.9771 0.0644,0.16095 0.15505,0.31009 0.23257,0.46514 0.15505,0.23257 0.35503,0.4408 0.46514,0.69771 0.12591,0.29379 0.10666,0.63649 0.23257,0.93028 0.43818,1.02243 1.13814,2.0437 1.62799,3.02341 0.25066,0.50133 0.20299,1.10368 0.46514,1.62799 0.80915,1.6183 1.79594,3.15905 2.79084,4.6514 0.26852,0.40279 0.71168,0.72564 0.93028,1.16285 0.17972,0.35944 0.28542,0.80341 0.46514,1.16285 0.13504,0.27009 0.93028,1.42414 0.93028,1.62799 0,0.0775 -0.15505,0 -0.23257,0 -0.46514,0 -0.93028,0 -1.39542,0 -0.24716,0 -3.41635,-0.16037 -3.48855,-0.23257 -0.0548,-0.0548 0.0693,-0.1979 0,-0.23257 -0.31009,-0.15505 -0.85276,0.15505 -1.16285,0 -0.15367,-0.0768 -0.39422,-0.55587 -0.46514,-0.69771 -0.39205,-0.78411 0.39462,-2.93188 0,-3.72112 -0.1912,-0.3824 -0.80614,-1.48815 -0.93028,-1.86056 -0.049,-0.14709 0.049,-0.31805 0,-0.46514 -0.12956,-0.38869 -0.73452,-1.05285 -0.93028,-1.39542 -0.76124,-1.33217 -0.23985,-0.48699 -0.69771,-1.86056 0.12475,-0.41548 -0.367,-0.43599 -0.46514,-0.69771 -1.15372,-3.07657 -0.0159,-0.72946 -0.69771,-2.09313 -0.33666,-0.67332 -0.38975,-0.85809 -0.69771,-1.62799 -0.20604,-0.5151 -0.78188,-1.03439 -0.93028,-1.62799 -0.0376,-0.15042 0.0576,-0.32118 0,-0.46514 -0.10381,-0.25952 -0.36133,-0.43819 -0.46514,-0.69771 -0.12482,-0.31204 -0.12025,-0.82589 -0.23257,-1.16285 -0.18867,-0.566 -0.55442,-1.05483 -0.69771,-1.62799 -0.12559,-0.50235 -0.0711,-1.14347 -0.23257,-1.62799 -0.17826,-0.53478 -0.36954,-1.05437 -0.46514,-1.62799 -0.14673,-0.88038 0,-1.89137 0,-2.79084 0,-0.7128 -0.1689,-1.65008 0,-2.3257 0.042,-0.16817 0.19053,-0.29697 0.23257,-0.46514 0.0376,-0.15042 -0.0693,-0.32646 0,-0.46514 0.0347,-0.0693 0.17775,0.0548 0.23257,0 0.14982,-0.14982 -0.0732,-0.71078 0,-0.93028 0.47707,-1.43121 1.03749,-2.52199 1.39542,-3.95369 -0.14018,-0.42094 0.37675,-0.43254 0.46514,-0.69771 0.049,-0.14709 -0.15042,-0.42754 0,-0.46514 0.31009,-0.0775 0.8292,0.5358 0.93028,0.23257 0.17847,-0.53542 -0.32826,-1.08046 -0.46514,-1.62799 -0.10161,-0.40641 0,-0.97451 0,-1.39542"
       id="path17825" />
    <ellipse
       style="fill:#808000;fill-opacity:1;stroke:#000000;stroke-width:0.699;stroke-dasharray:none;stroke-opacity:1"
       id="path19331"
       cx="101.30232"
       cy="123.50332"
       rx="4.9335551"
       ry="4.4401994" />
    <text
       xml:space="preserve"
       style="font-size:6.32183px;fill:#000000;fill-opacity:1;stroke:#000000;stroke-width:0.492;stroke-dasharray:none;stroke-opacity:1"
       x="109.95402"
       y="132.38809"
       id="text20165"
       transform="matrix(1.0280257,-0.01623975,0.01433605,0.97251185,0,0)"><tspan
         sodipodi:role="line"
         id="tspan20163"
         style="fill:#000000;fill-opacity:1;stroke-width:0.492;stroke-dasharray:none"
         x="109.95402"
         y="132.38809" /><tspan
         sodipodi:role="line"
         style="fill:#000000;fill-opacity:1;stroke-width:0.492;stroke-dasharray:none"
         x="109.95402"
         y="140.29037"
         id="tspan21051">BOB</tspan></text>
  </g>
  <metadata
     id="metadata23701">
    <rdf:RDF>
      <cc:Work
         rdf:about="">
        <dc:title>bob</dc:title>
      </cc:Work>
    </rdf:RDF>
  </metadata>
</svg>
