<?xml version="1.0" encoding="UTF-8" standalone="no"?>
<!-- Created with Inkscape (http://www.inkscape.org/) -->

<svg
   width="210mm"
   height="297mm"
   viewBox="0 0 210 297"
   version="1.1"
   id="svg5"
   inkscape:export-filename="worm.png"
   inkscape:export-xdpi="96"
   inkscape:export-ydpi="96"
   inkscape:version="1.2 (dc2aedaf03, 2022-05-15)"
   sodipodi:docname="warm.svg"
   xmlns:inkscape="http://www.inkscape.org/namespaces/inkscape"
   xmlns:sodipodi="http://sodipodi.sourceforge.net/DTD/sodipodi-0.dtd"
   xmlns="http://www.w3.org/2000/svg"
   xmlns:svg="http://www.w3.org/2000/svg"
   xmlns:rdf="http://www.w3.org/1999/02/22-rdf-syntax-ns#"
   xmlns:cc="http://creativecommons.org/ns#"
   xmlns:dc="http://purl.org/dc/elements/1.1/">
  <title
     id="title4269">worm</title>
  <sodipodi:namedview
     id="namedview7"
     pagecolor="#ffffff"
     bordercolor="#000000"
     borderopacity="0.25"
     inkscape:showpageshadow="2"
     inkscape:pageopacity="0.0"
     inkscape:pagecheckerboard="0"
     inkscape:deskcolor="#d1d1d1"
     inkscape:document-units="mm"
     showgrid="false"
     inkscape:zoom="0.80444024"
     inkscape:cx="90.746331"
     inkscape:cy="611.60541"
     inkscape:window-width="1920"
     inkscape:window-height="1057"
     inkscape:window-x="-8"
     inkscape:window-y="-8"
     inkscape:window-maximized="1"
     inkscape:current-layer="layer1" />
  <defs
     id="defs2" />
  <g
     inkscape:label="Layer 1"
     inkscape:groupmode="layer"
     id="layer1">
    <path
       style="fill:#1a1a1a;fill-opacity:1;stroke:none;stroke-width:1.03448;stroke-dasharray:none"
       d="M 147.02028,64.777908 174.95523,49.28281 159.10327,76.785511 c 0,0 -7.33927,1.512503 -11.29198,-2.060723 -3.95271,-3.573226 -0.79101,-9.94688 -0.79101,-9.94688 z"
       id="path2495" />
    <path
       style="fill:#1a1a1a;fill-opacity:1;stroke:none;stroke-width:1.03448;stroke-dasharray:none"
       d="m 127.41353,51.890589 22.44626,-22.729383 -7.47276,30.851919 c 0,0 -6.61715,3.516518 -11.41559,1.199878 -4.79844,-2.316641 -3.55791,-9.322414 -3.55791,-9.322414 z"
       id="path2492" />
    <path
       style="fill:#1a1a1a;fill-opacity:1;stroke:none;stroke-width:1.05087;stroke-dasharray:none"
       d="m 130.59524,51.635392 -16.15698,-28.165147 -0.57042,32.387237 c 0,0 5.57662,5.156495 10.86396,4.086425 5.28735,-1.070067 5.86344,-8.308515 5.86344,-8.308515 z"
       id="path2326" />
    <path
       style="fill:#8d1e9f;fill-opacity:1;stroke:#000000;stroke-width:0.390001"
       d="m 100.06935,43.727657 c -51.637871,17.10299 -49.515583,47.447967 -8.634138,40.800581 40.455158,-6.578071 20.153198,-3.079841 20.153198,-3.079841 0,0 -1.73459,-6.787269 5.17239,8.013395 13.30678,28.514538 -34.205982,20.392028 -67.425253,76.305648 -33.219268,55.91362 30.259141,98.01329 30.259141,98.01329 l 82.554812,1.97342 c 0,0 -36.03241,-46.61079 -38.15283,-72.3588 -2.30232,-27.95681 40.54474,-96.989591 41.77077,-109.524918 1.25342,-12.815374 -14.59922,-32.03299 -27.6279,-39.139535 -7.23589,-3.946844 -38.07019,-1.00324 -38.07019,-1.00324 z"
       id="path186"
       sodipodi:nodetypes="cscssccsssc" />
    <path
       id="path1101"
       style="fill:#ececec;fill-opacity:1;stroke:#000000;stroke-width:0.560535"
       d="m 113.09851,80.255709 c -0.42086,2.222321 5.50571,4.335406 3.71854,8.624586 -12.10254,29.046095 -34.205578,20.392375 -67.424822,76.305935 -33.219235,55.91356 30.259137,98.01313 30.259137,98.01313 l 55.325815,1.32241 c -2.30114,-7.60543 -6.04255,-16.02578 -10.98174,-24.71529 l 0.0579,0.0408 c 0,0 -0.23848,-0.37578 -0.32607,-0.51264 -1.68975,-2.94918 -3.50787,-5.91275 -5.4405,-8.86819 -5.75552,-9.69788 -13.73372,-24.21862 -13.63896,-30.08757 0.14318,-8.86829 -0.86039,-7.83599 6.96133,-25.12973 1.46855,-2.81979 2.87824,-5.66903 4.223,-8.53539 2.42761,-5.1782 4.63422,-10.39289 6.58874,-15.57063 0.24334,-0.57109 0.31678,-0.75759 0.31678,-0.75759 l -0.0688,0.0848 c 13.85072,-37.09801 5.84055,-65.603514 -9.57035,-70.214631 z"
       sodipodi:nodetypes="ccsccccccscccccc" />
    <path
       style="fill:#ececec;fill-opacity:1;stroke:#000000;stroke-width:0.390001"
       d="m 95.053154,116.10299 c 2.772664,1.93997 5.594666,4.11294 8.551496,5.59136 0.41603,0.20802 0.58786,0.7474 0.98671,0.98671 0.29729,0.17837 0.68942,0.15053 0.98671,0.32891 0.2659,0.15954 0.39191,0.49826 0.65781,0.6578 1.5019,0.90114 3.45828,1.23579 4.93355,1.97342 0.29418,0.14709 0.67469,-0.104 0.98672,0 0.14709,0.049 0.18181,0.27988 0.3289,0.32891 0.41603,0.13868 0.89958,-0.13868 1.31561,0 0.14709,0.049 0.18182,0.27987 0.32891,0.3289 0.59202,0.19734 1.38139,-0.19734 1.97342,0 2.50321,0.83441 9.6371,0.3289 12.82724,0.3289"
       id="path1284" />
    <path
       style="fill:#ececec;fill-opacity:1;stroke:#000000;stroke-width:0.390001"
       d="m 107.8804,104.26246 c 1.85797,3.04807 3.12714,3.86589 5.92026,5.26246 0.3263,0.16314 0.64603,0.54424 0.98671,0.6578 0.31203,0.10401 0.69254,-0.14709 0.98671,0 0.5371,0.26855 1.00803,0.44565 1.64452,0.65781 0.59203,0.19734 1.3814,-0.19734 1.97342,0 0.1471,0.049 0.19023,0.25957 0.32891,0.3289 0.51747,0.25874 1.7306,0 2.30232,0 0.56169,0 3.74953,0.26312 4.27575,0 1.12295,-0.56147 -1.01721,-0.3289 1.31562,-0.3289 0.6836,0 0.35147,-0.0226 0.6578,-0.3289 0.15505,-0.15505 0.50276,0.15504 0.65781,0 0.0775,-0.0775 -0.0775,-0.25138 0,-0.32891 0.15505,-0.15504 0.50276,0.15505 0.65781,0 0.0775,-0.0775 -0.0775,-0.25138 0,-0.3289 0.15504,-0.15505 0.50276,0.15505 0.65781,0 0.0775,-0.0775 0,-0.21927 0,-0.3289"
       id="path1286" />
    <path
       style="fill:#ececec;fill-opacity:1;stroke:#000000;stroke-width:0.390001"
       d="m 116.7608,90.119601 c 0.50418,0.420153 1.68211,1.657048 2.63122,1.973421 1.04335,0.347782 4.58002,0 5.92027,0"
       id="path1288" />
    <path
       style="fill:#ececec;fill-opacity:1;stroke:#000000;stroke-width:0.390001"
       d="m 81.89701,125.31229 c 2.234107,5.57122 5.75955,10.47719 10.524916,14.14286 0.626636,0.48203 1.349372,0.83024 1.973421,1.31561 1.026829,0.79865 2.042139,1.8867 3.289038,2.30233 0.208015,0.0693 0.461687,-0.0981 0.657807,0 0.09806,0.049 -0.09122,0.26809 0,0.3289 0.820941,0.5473 2.059968,0.76167 2.960128,0.98671 0.68976,0.17244 1.27716,0.84746 1.97343,0.98671 3.85838,0.77168 7.85489,0.65781 11.84053,0.65781 1.2365,0 4.43734,0.38467 5.59136,0 0.93724,-0.31241 1.62506,-0.3289 2.63123,-0.3289"
       id="path1290" />
    <path
       style="fill:#ececec;fill-opacity:1;stroke:#000000;stroke-width:0.390001"
       d="m 60.189369,150.30897 c 1.44441,2.34973 3.524511,4.16363 5.262456,6.24917 0.639657,0.76758 0.900668,1.37834 1.64452,1.97342 1.682166,1.34573 0.276551,-0.0349 2.302325,1.31561 1.62487,1.08325 3.080586,2.54785 4.933556,3.28904 2.245574,0.89823 4.580848,1.39189 6.906977,1.97342 0.237829,0.0595 0.415991,0.2886 0.657807,0.3289 2.447102,0.40786 4.845333,0.38908 7.23588,0.98672 0.670941,0.16773 1.609019,0 2.302325,0 2.519434,0 5.427242,-0.41108 7.893688,0 5.296847,0.8828 11.035917,0.3289 16.445177,0.3289"
       id="path1292" />
    <path
       style="fill:#ececec;fill-opacity:1;stroke:#000000;stroke-width:0.390001"
       d="m 44.401993,176.29236 c 0.328904,0.6578 0.451155,1.46937 0.986711,1.97342 6.584503,6.19718 18.828126,6.46481 27.627905,7.56478 0.270603,0.0338 4.170752,0.60531 4.275749,0.65781 0.138678,0.0693 0.181814,0.27987 0.328903,0.3289 0.979019,0.32634 2.861133,0.0575 3.946845,0.32891 5.248627,1.31216 10.900244,1.64451 16.445183,1.64451 1.286396,0 2.873041,0.208 3.946841,-0.3289 0.52625,-0.26312 1.44718,0.26312 1.97342,0 0.13868,-0.0693 0.18182,-0.27987 0.32891,-0.3289 0.43712,-0.14571 1.22691,0.2088 1.64452,0 0.62571,-0.31286 1.31561,-0.23675 1.31561,-0.65781"
       id="path1294" />
    <path
       style="fill:#ececec;fill-opacity:1;stroke:#000000;stroke-width:0.390001"
       d="m 41.112955,212.80066 c 3.310446,3.82076 8.366115,4.99261 13.156147,5.59136 0.438539,0.10964 0.877075,0.21927 1.315614,0.32891 0.438539,0.10963 0.867072,0.27283 1.315615,0.3289 1.631386,0.20393 3.288016,0.49325 4.933555,0.65781 0.654542,0.0654 1.320694,-0.0816 1.973421,0 0.243258,0.0304 0.417418,0.28082 0.657808,0.3289 0.946954,0.18939 2.003115,-0.13671 2.960134,0 6.266818,0.89526 12.709326,0.81868 19.07641,0.32891 1.424059,-0.10955 2.606302,0.11794 3.946846,-0.32891 0.296013,-0.0987 0.690697,0.0987 0.98671,0 0.14709,-0.049 0.181814,-0.27987 0.328904,-0.3289 0.520041,-0.17335 1.10699,0.1075 1.644517,0 0.24039,-0.0481 0.438539,-0.21927 0.657807,-0.32891 0.328904,-0.10963 0.644734,-0.2719 0.986711,-0.3289 0.931796,-0.1553 1.524669,-0.26898 2.302328,-0.65781 0.353697,-0.17684 1.152228,-0.86363 1.644517,-0.98671 1.505261,-0.37631 -0.341982,0.66435 1.644521,-0.3289 0.27735,-0.13868 0.38045,-0.51913 0.6578,-0.65781 0.19612,-0.0981 0.46169,0.0981 0.65781,0 0.47777,-0.23888 0.86406,-0.76093 1.31562,-0.98671 1.36881,-0.68441 -0.35161,0.0227 0.3289,-0.65781 0.0775,-0.0775 0.23084,0.049 0.3289,0 0.48958,-0.24479 0.87703,-1.02322 1.31562,-1.31561 0.24339,-0.16226 0.46265,-0.13375 0.65781,-0.3289 0.0775,-0.0775 -0.0775,-0.25138 0,-0.32891 0.0775,-0.0775 0.25138,0.0775 0.3289,0 0.0775,-0.0775 -0.0775,-0.25138 0,-0.3289 0.0775,-0.0775 0.23084,0.049 0.3289,0 0.57229,-0.28615 1.64452,-1.34502 1.64452,-1.64452"
       id="path1296" />
    <path
       style="fill:#ececec;fill-opacity:1;stroke:#000000;stroke-width:0.390001"
       d="m 58.544851,241.08638 c 2.682687,0.76648 4.108778,1.24102 7.23588,1.64451 5.446252,0.70275 15.245027,0.76628 20.720928,-0.3289 2.892838,-0.57857 5.674929,-1.91209 8.551495,-2.63123 2.171533,-0.54288 4.221194,-1.28834 6.249166,-2.30232 1.01143,-0.50572 1.94871,-0.481 2.96014,-0.98671 1.21445,-0.60723 3.53549,-1.91846 4.60465,-2.63124 0.3289,-0.21926 0.70719,-0.37829 0.98671,-0.6578 0.0775,-0.0775 0,-0.21927 0,-0.32891 0.10963,-0.10963 0.1999,-0.24289 0.3289,-0.3289 0.20398,-0.13598 0.48446,-0.15556 0.65781,-0.3289 0.0775,-0.0775 -0.0775,-0.25138 0,-0.32891 0.0775,-0.0775 0.25138,0.0775 0.3289,0 0.10964,-0.10963 0.21927,-0.87707 0.32891,-0.98671 0.0775,-0.0775 0.25138,0.0775 0.3289,0 0.0775,-0.0775 -0.0775,-0.25138 0,-0.3289 0.0775,-0.0775 0.23084,0.049 0.32891,0 1.36881,-0.68441 -0.35161,0.0227 0.3289,-0.65781 0.0775,-0.0775 0.25138,0.0775 0.3289,0 0.0775,-0.0775 -0.049,-0.23084 0,-0.3289 0.68441,-1.36882 -0.0227,0.35161 0.65781,-0.3289 0.31945,-0.31945 0.41882,-1.31562 1.31561,-1.31562"
       id="path1298" />
    <path
       style="fill:#ececec;fill-opacity:1;stroke:#000000;stroke-width:0.390001"
       d="m 91.764119,263.45182 c 5.138824,-1.85942 10.754121,-3.02545 15.787371,-5.26246 1.69633,-0.11525 2.58455,-1.62117 3.94685,-2.30232 1.75415,-0.87708 0.2491,0.38211 2.30232,-0.98671 0.95296,-0.63531 1.67785,-1.66674 2.63123,-2.30233 0.86754,-0.57836 1.89132,-1.2335 2.63123,-1.97342 0.57829,-0.57829 0.96208,-1.46159 1.64452,-1.97342 1.00529,-0.75397 2.18547,-1.59834 2.96013,-2.63123 0.17656,-0.2354 0.91213,-1.56994 0.98671,-1.64452 0.0775,-0.0775 0.25138,0.0775 0.32891,0 0.15505,-0.15505 -0.15505,-0.50276 0,-0.6578 0.0775,-0.0775 0.25138,0.0775 0.3289,0 0.0775,-0.0775 -0.0775,-0.25138 0,-0.32891 0.0775,-0.0775 0.25138,0.0775 0.3289,0 0.0552,-0.0552 0.98671,-1.49867 0.98671,-1.64452"
       id="path1300" />
    <ellipse
       style="fill:#000000;fill-opacity:1;stroke:#000000;stroke-width:0.390001"
       id="path1354"
       cx="78.608665"
       cy="64.770744"
       rx="2.55827"
       ry="4.5351152" />
    <ellipse
       style="fill:#000000;fill-opacity:1;stroke:#000000;stroke-width:0.390001"
       id="path1356"
       cx="88.492889"
       cy="64.42189"
       rx="2.6745551"
       ry="5.11654" />
    <path
       style="fill:none;fill-opacity:1;stroke:#000000;stroke-width:1.09;stroke-dasharray:none"
       d="m 64.964472,39.951028 c 1.570514,0.435719 3.220878,0.648143 4.711541,1.307152 4.177338,1.846764 5.188772,3.892726 7.119844,7.026528 0.257213,0.417417 0.498318,0.847058 0.696777,1.295397 0.09414,0.212666 -0.01879,0.500264 0.11924,0.687446 0.06507,0.08824 0.216961,0.09285 0.268894,0.189401 0.40341,0.749991 0.371227,2.140207 0.516706,2.97893 0.219338,1.264531 0.569118,2.423366 -0.399887,3.137916 -0.41055,0.302744 0.09704,0.455254 -0.378803,0.537791"
       id="path2258" />
    <path
       style="fill:none;fill-opacity:1;stroke:none;stroke-width:1.09;stroke-dasharray:none"
       d="m 81.632069,45.58372 c -1.455226,-0.250925 -2.92051,-0.232571 -4.41883,-0.232571"
       id="path2260" />
    <path
       style="fill:none;fill-opacity:1;stroke:#000000;stroke-width:1.09;stroke-dasharray:none"
       d="m 100.90426,37.857898 c -1.57051,0.435719 -3.220877,0.648143 -4.71154,1.307152 -4.177338,1.846764 -5.188772,3.892726 -7.119844,7.026528 -0.257213,0.417417 -0.498318,0.847058 -0.696777,1.295397 -0.09414,0.212666 0.01879,0.500264 -0.11924,0.687446 -0.06507,0.08824 -0.216961,0.09285 -0.268894,0.189401 -0.40341,0.749991 -0.371227,2.140207 -0.516706,2.97893 -0.219338,1.264531 -0.569118,2.423366 0.399887,3.137916 0.41055,0.302744 -0.09704,0.455254 0.378803,0.537791"
       id="path2262" />
    <path
       style="fill:#1a1a1a;fill-opacity:1;stroke:none;stroke-width:1.09;stroke-dasharray:none"
       d="M 139.05165,55.17068 166.365,35.665965 154.04076,65.711542 c 0,0 -7.61012,2.529349 -12.4533,-0.558987 -4.84317,-3.088339 -2.53581,-9.981875 -2.53581,-9.981875 z"
       id="path2264" />
    <path
       id="path2554"
       style="fill:#e6e6e6;fill-opacity:1;stroke:#000000;stroke-width:0.342007"
       d="M 92.068807,74.810202 A 9.1433095,25.111983 86.371658 0 0 87.164694,74.9658 9.1433095,25.111983 86.371658 0 0 65.191215,81.553721 c 4.207979,3.405467 13.150489,4.981717 26.296107,3.180177 9.613148,-1.317433 15.593068,-2.127329 19.215128,-2.608959 -0.12063,-0.433366 -0.56713,-2.2267 0.95567,-0.124813 0.54194,-0.07148 0.91702,-0.119881 1.32437,-0.172653 A 9.1433095,25.111983 86.371658 0 0 92.068807,74.810202 Z m 19.589313,7.189924 c -0.36726,0.04842 -0.52153,0.06708 -0.95567,0.124813 0.015,0.05375 0.0355,0.129385 0.0355,0.129385 0,0 0.67058,-0.09905 0.99463,-0.146444 -0.0233,-0.03266 -0.0521,-0.07681 -0.0746,-0.107754 z m 0.0745,0.107754 c 0.30564,0.42884 0.68528,1.004748 1.15853,1.773143 a 9.1433095,25.111983 86.371658 0 0 0.19349,-1.503136 9.1433095,25.111983 86.371658 0 0 -0.0849,-0.456807 c -0.63113,0.0939 -0.85427,0.12641 -1.26712,0.1868 z" />
    <path
       style="fill:#1a1a1a;fill-opacity:1;stroke:none;stroke-width:1.09;stroke-dasharray:none"
       d="m 152.00592,68.770835 33.08221,-5.65862 -24.18182,21.67631 c 0,0 -7.95195,-1.038363 -10.96611,-5.928045 -3.01416,-4.889684 2.06575,-10.089639 2.06575,-10.089639 z"
       id="path2320" />
    <path
       style="fill:#1a1a1a;fill-opacity:1;stroke:none;stroke-width:1.03448;stroke-dasharray:none"
       d="m 121.83452,48.967721 18.09691,-26.32416 -1.92787,31.685431 c 0,0 -5.89519,4.625929 -11.02638,3.189703 -5.13119,-1.436226 -5.14266,-8.550974 -5.14266,-8.550974 z"
       id="path2322" />
    <ellipse
       style="fill:#1a1a1a;fill-opacity:1;stroke:none;stroke-width:1.09;stroke-dasharray:none"
       id="path2550"
       cx="64.794022"
       cy="40.455147"
       rx="3.6179402"
       ry="3.2890365" />
    <ellipse
       style="fill:#1a1a1a;fill-opacity:1;stroke:none;stroke-width:1.09;stroke-dasharray:none"
       id="ellipse2552"
       cx="101.30233"
       cy="37.823917"
       rx="3.6179402"
       ry="3.2890365" />
    <path
       style="fill:#000000;fill-opacity:1;stroke:#000000;stroke-width:0.390001"
       d="m 75.352682,78.376091 c 1.211873,-0.08634 2.159362,-0.76408 3.255978,-1.162852 1.754552,-0.638018 6.268947,-0.930277 8.37252,-0.930277 0.629944,0 1.971188,-0.293542 2.558272,0 0.19612,0.09806 0.269018,0.367077 0.465137,0.465137 0.193636,0.09682 0.78276,-0.147521 0.930281,0 0.05482,0.05482 -0.05482,0.177755 0,0.232572 0.140448,0.140446 1.174869,0 1.39542,0"
       id="path1476" />
    <path
       sodipodi:type="spiral"
       style="fill:none;fill-rule:evenodd;stroke:#dfe369;stroke-width:2.86312879;stroke-dasharray:none;stroke-opacity:1"
       id="path2616"
       sodipodi:cx="18.089701"
       sodipodi:cy="93.408638"
       sodipodi:expansion="1"
       sodipodi:revolution="3"
       sodipodi:radius="47.975983"
       sodipodi:argument="-17.952431"
       sodipodi:t0="0"
       d="m 18.089701,93.408638 c 1.500655,1.879939 -1.79375,2.95035 -3.124583,2.494189 -3.606474,-1.236169 -3.669533,-6.040333 -1.863795,-8.743354 3.230044,-4.835069 10.189804,-4.663106 14.362125,-1.233401 6.123049,5.03323 5.693318,14.398168 0.603007,19.980898 -6.784583,7.4409 -18.6277701,6.73957 -25.5996667,-0.0274 C -6.306632,97.364053 -5.3274254,83.011996 3.124569,74.661143 13.361067,64.547141 30.237736,65.807416 39.961778,75.949318 51.421225,87.901198 49.87808,107.31166 38.04321,118.4053 24.379383,131.21334 2.4292829,129.38622 -10.031542,115.85634 -24.190322,100.48282 -22.078506,75.989142 -6.8521854,62.162813 10.229446,46.651762 37.269504,49.048767 52.460108,65.972563 69.324558,84.761184 66.64201,114.34967 48.019964,130.90363"
       transform="matrix(0.34539319,0.27976938,-0.08874304,0.15077958,132.13922,53.861003)" />
    <path
       style="fill:none;fill-opacity:1;stroke:#dfe369;stroke-width:0.564999;stroke-dasharray:none;stroke-opacity:1"
       d="m 138.46844,49.993354 c 1.92488,0.67102 4.93355,1.246544 4.93355,2.960134"
       id="path2741" />
    <path
       style="fill:none;fill-opacity:1;stroke:#dfe369;stroke-width:0.564999;stroke-dasharray:none;stroke-opacity:1"
       d="m 155.24252,63.807307 c 1.80492,-0.831617 1.26836,2.912875 1.64452,3.289038 0.0775,0.07752 0.25138,-0.07752 0.3289,0 0.16446,0.164452 -0.16445,0.822259 0,0.986711 0.0775,0.07752 0.25138,-0.07752 0.32891,0 0.16445,0.164452 -0.16445,0.822259 0,0.986711 0.43854,0.438539 0.3289,-0.548172 0.3289,0.328903"
       id="path2743" />
    <path
       style="fill:none;fill-opacity:1;stroke:#dfe369;stroke-width:0.54502;stroke-dasharray:none;stroke-opacity:1"
       d="m 158.91987,83.535621 c 0.31485,0.532858 0.70348,1.027408 0.94455,1.598578 0.17561,0.416104 0.24038,3.348386 0,3.83659 -0.32097,0.651857 -1.2819,3.539714 -1.57425,3.836589 -0.0742,0.07535 -0.24064,-0.07536 -0.31486,0 -0.14841,0.150715 0.0939,0.44879 0,0.639431 -0.18139,0.368402 -0.42601,0.968624 -0.62969,1.278863 -0.68057,1.036624 -1.83824,1.84082 -2.5188,2.877444 -0.0582,0.08867 0.0582,0.23104 0,0.319715 -0.48439,0.737805 -1.40472,1.180489 -1.88909,1.918291 -0.26035,0.396568 -0.3481,0.897588 -0.62971,1.278868 -0.38451,0.5206 -1.28193,1.00488 -1.57425,1.59858 -0.18235,0.37034 -0.1382,0.9201 -0.31484,1.27886 -0.13276,0.26961 -0.49695,0.36982 -0.62971,0.63943 -0.0469,0.0954 0.0742,0.24436 0,0.31972 -0.0742,0.0753 -0.24063,-0.0753 -0.31484,0 -0.0742,0.0753 0.0582,0.23104 0,0.31972 -0.478,0.72806 -0.58848,0.87543 -0.94456,1.59857 -0.39042,0.79292 -1.1622,1.40119 -1.57424,2.23801 -0.0939,0.19064 0.0939,0.4488 0,0.63944 -0.33684,0.68406 -0.29288,-0.0446 -0.6297,0.63942 -0.74488,1.51276 -1.43493,3.23394 -2.20396,4.79574 -0.49759,1.01056 -1.29759,1.97648 -1.88909,2.87744 -0.0986,0.15016 -0.21627,0.80899 -0.31485,0.95915 -1.01223,1.5418 -1.81605,3.24574 -2.83366,4.79574 -0.16465,0.2508 -0.46503,0.38862 -0.62969,0.63943 -0.57732,0.87936 -0.86701,2.20102 -1.2594,3.19716 -0.72036,1.82873 -1.52543,3.59784 -2.20395,5.43516 -0.4918,1.33174 -2.23975,3.66232 -2.5188,4.79574 -0.25407,1.032 -0.48231,1.61897 -0.94455,2.55773 -0.3342,0.67873 -0.31234,1.5935 -0.6297,2.23801 -0.16922,0.34368 -0.48916,0.60238 -0.6297,0.95914 -0.20982,0.53268 -0.0627,1.40628 -0.31485,1.91831 -0.26317,0.53447 -0.76032,1.03735 -0.94454,1.59857 -0.0663,0.20221 0.0663,0.43722 0,0.63943 -0.0469,0.14298 -0.25973,0.17978 -0.31485,0.31971 -1.59771,4.05602 0.74416,-1.0172 -0.6297,2.23802 -0.18489,0.43807 -0.50076,0.8206 -0.62971,1.27886 -0.0865,0.30741 0.0518,0.64379 0,0.95915 -0.17855,1.08783 -0.79097,2.10553 -0.94454,3.19715 -0.0594,0.42201 0.0593,0.85687 0,1.27887 -0.14544,1.03379 -0.79441,1.81024 -0.94455,2.87744 -0.0593,0.422 0.18774,0.89758 0,1.27886 -0.48273,0.98038 -1.03133,2.99833 -1.25941,4.15631 -0.0617,0.31351 0.0764,0.64898 0,0.95914 -0.036,0.14622 -0.24847,0.18492 -0.31484,0.31973 -0.36663,0.74458 -0.43366,1.76141 -0.62971,2.55771 -0.23976,0.97392 -1.06829,1.90716 -1.25939,2.87745 -0.0617,0.31351 0.0617,0.64564 0,0.95915 -0.14238,0.72285 -0.7621,1.17722 -0.94455,1.91829 -0.94123,3.8231 -2.09708,7.13642 -3.7782,10.55062 -0.15109,0.30685 0.10079,0.97183 0,1.27887 -0.0469,0.14298 -0.24847,0.18491 -0.31485,0.31971 -0.1408,0.28596 0.0617,0.64564 0,0.95915 -0.50622,2.57024 -0.6297,3.37565 -0.6297,6.0746 0,1.13531 -0.32005,3.82076 0,4.79573 0.14842,0.45215 0.48128,0.82672 0.6297,1.27887 0.30598,0.93212 0.32372,1.94532 0.6297,2.87744 0.43462,1.32404 0.68537,1.505 0.94455,2.55773 0.21606,0.87761 1.71325,2.36668 2.20394,3.19716 0.64639,1.09395 1.1778,2.11371 1.88911,3.19715 1.17075,1.78328 -0.36675,-0.45145 0.31485,1.27887 0.72876,1.85005 2.09499,3.68501 2.83364,5.43516 1.22587,2.90455 0.10045,0.51979 1.57425,4.79575 0.24784,0.71904 2.78479,6.68921 2.83365,6.71402 0.18774,0.0954 0.44196,-0.0954 0.6297,0 0.0939,0.0476 -0.0742,0.24436 0,0.31972 0.0742,0.0753 0.24064,-0.0753 0.31485,0 0.16594,0.1685 0.18468,0.44115 0.31485,0.63943 0.38069,0.57986 1.0025,0.75711 1.2594,1.27886 0.33592,0.68222 1.43263,0.8702 1.88911,1.59859 0.50396,0.80418 0.76742,1.74591 1.25939,2.55772 0.3522,0.58116 0.89862,1.02287 1.2594,1.59857 1.19093,1.90039 2.16031,3.90244 3.46334,5.75489 0.3557,0.50567 0.51184,1.15917 0.94456,1.59858 0.0742,0.0753 0.24063,-0.0753 0.31485,0 0.0742,0.0753 -0.0469,0.22439 0,0.31971 0.23757,0.48251 0.81155,0.36935 1.25939,1.27887 0.26991,0.54815 0.61083,0.1311 0.94455,0.63943 0.13018,0.19828 0.14892,0.47092 0.31486,0.63943 0.20776,0.21099 1.00952,0.45167 1.25939,0.95915 0.0469,0.0954 -0.0742,0.24436 0,0.31972 0.0742,0.0753 0.24064,-0.0753 0.31486,0 0.0742,0.0753 -0.0469,0.22439 0,0.31971 0.31485,0.63944 1.25939,0.95915 1.57424,1.59858 0.38773,0.78744 -0.91392,-0.28862 0.31486,0.95915 0.0742,0.0753 0.24064,-0.0753 0.31484,0 0.38349,0.38941 0.14749,0.71431 0.62971,0.95915 0.55735,0.28298 0.10758,-0.47556 0.6297,0.31971 0.26034,0.39656 0.36934,0.8823 0.62969,1.27887 0.31053,0.47298 1.01017,0.77269 1.2594,1.27885 0.0469,0.0954 -0.0742,0.24436 0,0.31973 0.0683,0.0694 0.59901,0.25737 0.6297,0.31971 0.0939,0.19064 -0.0779,0.44153 0,0.63943 0.36771,0.93349 1.10014,1.67509 1.57425,2.55771 0.94941,1.76748 2.05206,3.5833 2.83365,5.4352 0.17991,0.42627 -0.28486,0.31971 0.31485,0.31971"
       id="path2745" />
    <path
       style="fill:none;fill-opacity:1;stroke:#dfe369;stroke-width:0.628999;stroke-dasharray:none;stroke-opacity:1"
       d="m 122.43438,47.937708 c -0.74003,0 -1.48006,0 -2.22009,0 -0.17669,0 -0.48681,-0.04275 -0.65781,0 -0.0376,0.0094 -0.0476,0.06489 -0.0822,0.08222 -0.0735,0.03678 -0.16691,-0.01995 -0.24668,0 -0.3252,0.0813 -0.65362,0.151511 -0.98671,0.246679 -0.85099,0.243139 0.40757,-0.113691 -0.49335,0.246677 -0.0509,0.02035 -0.11245,-0.01733 -0.16446,0 -0.0368,0.01225 -0.0476,0.06489 -0.0822,0.08223 -0.24568,0.122838 -0.56733,0.20144 -0.82226,0.328903 -0.33428,0.16714 -0.61192,0.438386 -0.90449,0.657807 -0.20273,0.152054 -0.4592,0.245626 -0.6578,0.411131 -0.51236,0.426966 -1.35757,1.235065 -1.64452,1.80897 -0.0982,0.196323 -0.38045,0.305181 -0.49336,0.493355 -0.20895,0.348255 -0.42064,0.670491 -0.6578,0.986711 -0.14797,0.197289 -0.19837,0.461999 -0.32891,0.657807 -0.0152,0.02281 -0.0628,-0.01939 -0.0822,0 -0.0152,0.01516 -0.0671,0.231526 -0.0822,0.246679 -0.0194,0.01939 -0.0628,-0.01939 -0.0822,0 -0.0867,0.08667 -0.1257,0.212616 -0.16446,0.328903 -0.0707,0.212207 -0.17384,0.439298 -0.24668,0.657807 -0.0856,0.256739 -0.0811,0.572201 -0.16445,0.822259 -0.025,0.07508 -0.14545,0.170691 -0.16445,0.246676 -0.02,0.07977 0.0199,0.166908 0,0.246679 -0.009,0.03761 -0.0649,0.04756 -0.0822,0.08223 -0.0971,0.194191 -0.17401,0.522007 -0.24668,0.740034 -0.026,0.07801 0.0199,0.166907 0,0.246677 -0.0738,0.295163 -0.15077,0.534543 -0.24668,0.822261 -0.0898,0.269433 0,1.276623 0,1.644518 0,0.661119 -0.0929,1.405443 0,2.055648 0.009,0.06067 0.0721,0.103997 0.0822,0.164452 0.0225,0.135178 -0.0332,0.278178 0,0.411128 0.0959,0.383664 0.15034,0.76581 0.24667,1.151162 0.0199,0.07977 -0.0199,0.166908 0,0.246679 0.0433,0.173176 0.19014,0.323745 0.24668,0.493356 0.20064,0.601914 0.494,1.097409 0.82226,1.644517 0.2172,0.36199 0.31183,0.788109 0.49336,1.151163 0.0937,0.187484 0.21579,0.323688 0.3289,0.493355 0.17473,0.262096 0.24135,0.621512 0.41113,0.904486 0.77573,1.292889 1.73576,2.311345 2.79568,3.371263 0.36242,0.362423 0.81565,0.954897 1.23339,1.233389 0.051,0.034 0.12111,0.03889 0.16445,0.08222 0.25721,0.257204 0.45569,0.578535 0.74004,0.822259 0.38415,0.329279 0.76701,0.657442 1.15116,0.98671 0.26391,0.226211 0.47848,0.511181 0.74003,0.740035 0.10314,0.09024 0.232,0.149772 0.32891,0.246676 0.0699,0.06988 0.0994,0.172307 0.16445,0.246679 0.67836,0.775279 0.13425,0.05203 0.90448,0.822259 0.0433,0.04334 0.0389,0.121115 0.0822,0.164452 0.0643,0.06425 0.45017,0.430651 0.57558,0.493355 0.0245,0.01225 0.0628,-0.01939 0.0822,0 0.0194,0.01937 -0.0123,0.05771 0,0.08223 0.006,0.01185 0.60253,0.529516 0.65781,0.57558 0.20886,0.174053 0.54805,0.301374 0.74004,0.493355 0.0194,0.01939 0,0.05482 0,0.08223 0.0548,0.05482 0.10243,0.117938 0.16445,0.164452 0.0981,0.07354 0.22691,0.09646 0.3289,0.164452 0.0968,0.0645 0.15365,0.176906 0.24668,0.246676 0.0693,0.05201 0.18539,0.02093 0.24668,0.08223 0.0194,0.01937 -0.0194,0.06284 0,0.08222 0.0898,0.08976 0.52503,0.278355 0.57558,0.328904 0.0194,0.01937 -0.0194,0.06285 0,0.08223 0.0388,0.03876 0.12569,-0.03876 0.16445,0 0.0194,0.01939 -0.0194,0.06284 0,0.08222 0.15481,0.154811 0.42077,0.256323 0.57558,0.411131 0.0433,0.04334 0.0439,0.116594 0.0822,0.164452 0.1726,0.215754 0.44981,0.475811 0.6578,0.657807 0.20627,0.180488 0.464,0.299548 0.65781,0.493355 0.0194,0.01937 -0.0194,0.06285 0,0.08223 0.0442,0.04423 1.2172,0.690825 1.31562,0.740032 0.0987,0.04934 0.148,0.197342 0.24667,0.246679 0.0775,0.03876 0.16445,0.05482 0.24668,0.08222 0.0822,0.08223 0.14992,0.182176 0.24668,0.246679 0.0721,0.04808 0.16915,0.04346 0.24668,0.08222 0.25157,0.125788 0.4328,0.343353 0.6578,0.493356 0.0228,0.01521 0.0548,0 0.0822,0 0.0548,0.02741 0.11542,0.04546 0.16445,0.08223 0.062,0.04651 0.10243,0.117938 0.16445,0.164451 0.14649,0.109863 0.25889,0.06296 0.41113,0.164452 0.45433,0.302885 1.00571,0.420627 1.48007,0.657807 0.0347,0.01733 0.0454,0.06997 0.0822,0.08223 0.27784,0.09261 0.64502,0.116943 0.90448,0.246676 0.25075,0.125378 -0.15039,0.06518 0.24668,0.164452 0.0532,0.01331 0.11245,-0.01733 0.16445,0 0.32655,0.108852 0.66838,0.416417 0.98671,0.575582 0.049,0.0245 0.11542,-0.02453 0.16445,0 0.0958,0.04789 0.1509,0.11656 0.24668,0.164452 0.049,0.0245 0.11542,-0.02453 0.16445,0 0.0693,0.03467 0.0909,0.139935 0.16446,0.164452 0.052,0.01733 0.11244,-0.01733 0.16445,0 0.14435,0.04812 0.26677,0.198559 0.41112,0.246676 0.078,0.02601 0.18854,-0.05814 0.24668,0 0.0194,0.01937 -0.0194,0.06285 0,0.08223 0.0373,0.0373 0.92156,0.08222 1.06894,0.08222"
       id="path4265" />
  </g>
  <metadata
     id="metadata4267">
    <rdf:RDF>
      <cc:Work
         rdf:about="">
        <dc:title>worm</dc:title>
      </cc:Work>
    </rdf:RDF>
  </metadata>
</svg>
