<?xml version="1.0" encoding="UTF-8" standalone="no"?>
<!-- Created with Inkscape (http://www.inkscape.org/) -->

<svg
   width="210mm"
   height="297mm"
   viewBox="0 0 210 297"
   version="1.1"
   id="svg5"
   inkscape:export-filename="wap.png"
   inkscape:export-xdpi="96"
   inkscape:export-ydpi="96"
   inkscape:version="1.2 (dc2aedaf03, 2022-05-15)"
   sodipodi:docname="waspdr.svg"
   xmlns:inkscape="http://www.inkscape.org/namespaces/inkscape"
   xmlns:sodipodi="http://sodipodi.sourceforge.net/DTD/sodipodi-0.dtd"
   xmlns="http://www.w3.org/2000/svg"
   xmlns:svg="http://www.w3.org/2000/svg">
  <sodipodi:namedview
     id="namedview7"
     pagecolor="#ffffff"
     bordercolor="#000000"
     borderopacity="0.25"
     inkscape:showpageshadow="2"
     inkscape:pageopacity="0.0"
     inkscape:pagecheckerboard="0"
     inkscape:deskcolor="#d1d1d1"
     inkscape:document-units="mm"
     showgrid="false"
     inkscape:zoom="1.6088805"
     inkscape:cx="286.53465"
     inkscape:cy="470.51351"
     inkscape:window-width="1920"
     inkscape:window-height="1057"
     inkscape:window-x="-8"
     inkscape:window-y="-8"
     inkscape:window-maximized="1"
     inkscape:current-layer="layer1" />
  <defs
     id="defs2" />
  <g
     inkscape:label="Layer 1"
     inkscape:groupmode="layer"
     id="layer1">
    <ellipse
       style="fill:#cccccc;stroke:#000000;stroke-width:1;stroke-dasharray:none;stroke-opacity:1"
       id="ellipse14609"
       cx="51.495312"
       cy="112.39173"
       rx="6.9770999"
       ry="15.931046"
       transform="rotate(-18.897446)"
       inkscape:label="ellipse13557" />
    <ellipse
       style="fill:#333333;stroke:#000000;stroke-width:1;stroke-dasharray:none;stroke-opacity:1"
       id="path14600"
       cx="93.900139"
       cy="110.35447"
       rx="8.4306622"
       ry="8.0236654" />
    <ellipse
       style="fill:#cccccc;stroke:#000000;stroke-width:1;stroke-dasharray:none;stroke-opacity:1"
       id="ellipse13557"
       cx="127.43837"
       cy="49.181423"
       rx="6.9770999"
       ry="15.931046"
       transform="rotate(19.789516)"
       inkscape:label="ellipse13557" />
    <path
       id="path14594"
       style="fill:#a05a2c;stroke:#000000;stroke-width:1;stroke-dasharray:none;stroke-opacity:1"
       d="M 78.219515 101.91988 A 13.372775 13.082063 0 0 0 64.847205 115.00177 A 13.372775 13.082063 0 0 0 68.673844 124.15108 C 67.81414 129.07463 67.910732 132.40374 69.046948 129.40916 C 69.719352 127.63698 70.302564 126.54151 70.78276 125.86984 A 13.372775 13.082063 0 0 0 76.13127 127.91777 C 76.368229 128.61672 76.60571 129.47032 76.83407 130.51451 C 77.443354 133.30051 78.098518 131.64112 78.347673 128.07849 A 13.372775 13.082063 0 0 0 91.592342 115.00177 A 13.372775 13.082063 0 0 0 78.219515 101.91988 z " />
    <path
       style="fill:none;stroke:#000000;stroke-width:0.725214;stroke-dasharray:none;stroke-opacity:1"
       d="m 68.326209,120.05089 c 2.58417,-0.2034 6.194331,-0.40209 8.654866,0.31554 0.881454,0.25709 1.535421,0.59285 2.344025,0.94661"
       id="path14536" />
    <ellipse
       style="fill:#1a1a1a;stroke:#000000;stroke-width:1;stroke-dasharray:none;stroke-opacity:1"
       id="path14286"
       cx="70.893944"
       cy="112.33131"
       rx="1.976845"
       ry="3.7211199" />
    <ellipse
       style="fill:#1a1a1a;stroke:#000000;stroke-width:1;stroke-dasharray:none;stroke-opacity:1"
       id="path14288"
       cx="77.269676"
       cy="112.33131"
       rx="1.976845"
       ry="4.4188299" />
    <path
       id="ellipse14692"
       style="fill:#333333;stroke:#000000;stroke-width:1.03899;stroke-dasharray:none;stroke-opacity:1"
       d="m 97.739117,144.81862 -7.10293,19.75021 17.407723,-15.52101 a 17.82353,16.261238 0 0 0 -10.304793,-4.2292 z" />
    <path
       id="path14699"
       style="fill:#a05a2c;stroke:#000000;stroke-width:1;stroke-dasharray:none;stroke-opacity:1"
       d="m 105.50919,109.39669 c -0.74182,0.004 -1.47142,0.12064 -2.17868,0.35967 -5.658333,1.9122 -7.728073,10.90989 -4.622983,20.09697 1.17063,3.46147 -1.36227,7.57019 0.82838,9.96993 l -1.79628,4.99505 a 17.82353,16.261238 0 0 1 10.304283,4.22971 l 6.93757,-6.18567 c 5.36836,-2.21653 7.22874,-11.01198 4.21628,-19.9347 -2.7171,-8.03834 -8.4959,-13.55773 -13.68857,-13.53096 z" />
    <path
       style="fill:none;stroke:#000000;stroke-width:0.8341;stroke-dasharray:none;stroke-opacity:1"
       d="m 94.982774,116.20403 c 0.119632,0.20969 0.269712,0.39465 0.358892,0.62911 0.0357,0.0938 -0.0253,0.21509 0,0.31456 0.0178,0.0703 0.10178,0.087 0.11963,0.15728 0.0378,0.14921 -0.0535,0.33116 0,0.47184 0.0253,0.0662 0.10178,0.087 0.11963,0.15728 0.053,0.20903 -0.0759,0.5867 0,0.7864 0.0253,0.0662 0.0944,0.091 0.11963,0.15728 0.0373,0.0982 0.0466,2.17524 0,2.3592 -0.0971,0.38285 -0.23463,0.61694 -0.35889,0.94367 -0.0357,0.0938 0.0564,0.24042 0,0.31457 -0.0282,0.037 -0.10178,-0.0469 -0.11963,0 -0.051,0.13399 -0.0279,0.50838 -0.11963,0.62911 -0.0282,0.0372 -0.09145,-0.037 -0.119632,0 -0.151277,0.19889 -0.157756,0.57208 -0.239258,0.7864 -0.06401,0.16827 -0.175281,0.1463 -0.239259,0.31456 -0.03625,0.0953 -0.06952,0.40593 -0.119629,0.47184 -0.02818,0.037 -0.09145,-0.0372 -0.119629,0 -0.0632,0.0831 -0.295688,0.70331 -0.358891,0.7864 -0.02818,0.037 -0.08396,-0.0234 -0.119629,0 -0.287103,0.18873 -0.430671,0.75493 -0.717781,0.94366 -0.03566,0.0234 -0.09145,-0.037 -0.119629,0 -0.0735,0.0966 -0.07904,0.36652 -0.239259,0.47185 -0.0725,0.0476 -0.308774,0.0913 -0.35889,0.15728 -0.02818,0.0371 0.02818,0.12021 0,0.15728 -0.02818,0.0372 -0.09145,-0.037 -0.119629,0 -0.069,0.0907 -0.167734,0.47184 -0.358891,0.47184"
       id="path14704" />
    <path
       style="fill:#d38d5f;fill-opacity:1;stroke:#000000;stroke-width:0.537003;stroke-dasharray:none;stroke-opacity:1"
       d="m 108.69099,112.45666 c 0.33589,0.12623 0.71615,-0.12623 1.05203,0 2.12242,0.79761 3.79007,3.51999 4.8657,5.7657 0.41089,0.85784 1.76101,3.4521 1.97258,4.77728 0.1456,0.91194 0.13757,1.85763 0.26301,2.80048 0.11371,0.85461 -0.0978,1.77796 0,2.63575 0.0196,0.17189 0.11191,0.3223 0.13151,0.4942 0.0742,0.65056 0,1.49034 0,2.14155 0,0.8717 0.14018,2.08723 0,2.96521 -0.10009,0.6269 -0.10511,1.3834 -0.26301,1.9768 -0.0196,0.0736 -0.11647,0.0894 -0.13151,0.16474 -0.0319,0.15981 0.0258,0.33267 0,0.4942 -0.0681,0.42657 -0.11982,0.22516 -0.263,0.4942 -0.26235,0.49294 -0.38307,1.13163 -0.65753,1.64734 -0.1164,0.21872 -0.46057,0.41298 -0.52602,0.65894 -0.0277,0.10419 0.0486,0.23809 0,0.32947 -0.0544,0.10216 -0.19371,0.0779 -0.26301,0.16474 -0.031,0.0389 0.0196,0.11562 0,0.16473 -0.0215,0.054 -0.75365,1.10881 -0.78903,1.15314 -0.031,0.0389 -0.10051,-0.0389 -0.13151,0 -0.0693,0.0869 -0.0622,0.24264 -0.13151,0.32946 -0.031,0.0389 -0.10051,-0.0389 -0.1315,0 -0.1572,0.19692 -0.30691,0.6042 -0.39451,0.82367 -0.15515,0.3887 -0.57106,0.55063 -0.78904,0.82367 -0.031,0.0389 0.031,0.12591 0,0.16474 -0.27209,0.34084 0.0106,-0.52085 -0.26301,0.16473 -0.0196,0.0491 0.031,0.12591 0,0.16474 -0.031,0.0389 -0.10051,-0.0389 -0.1315,0 -4.3e-4,5.3e-4 -0.27537,0.50967 -0.39452,0.65893 -0.11915,0.14927 -0.5256,0.49369 -0.52603,0.49421 -0.27208,0.34084 0.41579,-0.0133 -0.1315,0.32946 -0.0785,0.0491 -0.20102,-0.0776 -0.26301,0 -0.0129,0.0161 -0.0824,0.55578 -0.26301,0.32948 -0.0438,-0.0549 0.0877,-0.10983 0.13151,-0.16475 0.24648,-0.30877 0.45085,-1.19426 0.65752,-1.64733 0.34647,-0.75953 0.7384,-1.52048 1.05204,-2.30628 0.39714,-0.99496 -0.019,-0.0697 0.13151,-0.82367 0.1445,-0.72404 0.38183,-1.41906 0.52602,-2.14154 0.18123,-0.90809 0.63943,-1.69874 0.78903,-2.63575 0.0344,-0.21538 -0.0425,-0.44585 0,-0.65894 0.3613,-1.81037 0.13151,-4.02954 0.13151,-5.93042 0,-0.86627 0.15083,-2.53893 0,-3.29469 -0.14464,-0.72472 -0.38125,-1.41613 -0.52602,-2.14154 -0.0213,-0.10655 0.0277,-0.22528 0,-0.32947 -0.0822,-0.30888 -0.31233,-0.67952 -0.39452,-0.9884 -0.0277,-0.10419 0.0277,-0.22528 0,-0.32947 -0.0815,-0.30636 -0.30215,-0.6413 -0.39451,-0.9884 -0.0797,-0.29969 -0.0122,-0.45008 -0.13151,-0.82367 -0.10713,-0.33552 -0.31379,-0.68503 -0.39451,-0.98841 -0.0277,-0.10419 0.0392,-0.23124 0,-0.32947 -0.0196,-0.0491 -0.11191,0.0491 -0.13151,0 -0.0392,-0.0983 0.0277,-0.22528 0,-0.32946 -0.0993,-0.37315 -0.44216,-0.73295 -0.52602,-1.15314 -0.0213,-0.10655 0.0277,-0.22528 0,-0.32947 -0.0519,-0.19513 -0.32058,-0.30896 -0.39452,-0.4942 -0.0406,-0.10177 -0.0828,-0.59788 -0.1315,-0.65894 -0.031,-0.0388 -0.10051,0.0388 -0.13151,0 -0.0659,-0.0825 -0.0453,-0.55094 -0.1315,-0.65893 -0.031,-0.0388 -0.10051,0.0388 -0.13151,0 -0.098,-0.12279 -0.0546,-0.34973 -0.13151,-0.49421 -0.15183,-0.2853 -0.40241,-0.51398 -0.52601,-0.82367 -0.0398,-0.0998 -0.0764,-0.42517 -0.13152,-0.4942 -0.031,-0.0388 -0.1005,0.0388 -0.1315,0 -0.031,-0.0388 0.031,-0.12591 0,-0.16473 -0.031,-0.0388 -0.10051,0.0388 -0.1315,0 -0.031,-0.0388 0.0196,-0.11562 0,-0.16474 -0.15311,-0.38359 -0.52169,-0.55576 -0.78903,-0.82367 z"
       id="path17640" />
    <path
       style="fill:none;stroke:#000000;stroke-width:0.801368;stroke-dasharray:none;stroke-opacity:1"
       d="m 88.771197,121.52217 c 0.0011,0.20768 0.02845,0.41728 0.0033,0.62306 -0.01691,0.13803 -0.166023,0.2356 -0.1653,0.37492 0.0027,0.50594 0.05708,1.08284 0.119906,1.61923 0.04323,0.36912 0.338382,0.74887 0.340305,1.11935 2.41e-4,0.0464 -0.06847,0.081 -0.0551,0.12497 0.02674,0.0879 0.196893,0.0352 0.223638,0.12317 0.01336,0.044 -0.06847,0.081 -0.0551,0.12497 0.01891,0.0622 0.26145,0.24753 0.280357,0.30972 0.01336,0.044 -0.06847,0.081 -0.0551,0.12498 0.07562,0.24873 0.652001,0.30732 0.727631,0.55604 0.01336,0.044 -0.06847,0.081 -0.0551,0.12498 0.02674,0.0879 0.17338,0.0492 0.223638,0.12317 0.0884,0.1302 0.284938,0.46757 0.337074,0.49628"
       id="path14706" />
    <path
       style="fill:none;stroke:#000000;stroke-width:1;stroke-dasharray:none;stroke-opacity:1"
       d="m 64.629567,96.862126 c 1.344491,-0.16936 2.112163,0.476216 3.124586,1.151159 0.263597,0.17573 0.256746,0.53951 0.493355,0.65781 0.04903,0.0245 0.125691,-0.0388 0.164452,0 0.07122,0.0712 0.258144,0.55167 0.328904,0.65781 0.06799,0.10199 0.274084,0.0548 0.328903,0.16445 0.04903,0.0981 -0.04903,0.23084 0,0.3289 0.0245,0.049 0.125691,-0.0388 0.164452,0 0.122574,0.12258 0.04188,0.370775 0.164452,0.493355 0.03876,0.0388 0.12569,-0.0388 0.164452,0 0.07752,0.0775 -0.07752,0.25138 0,0.3289 0.03876,0.0388 0.12569,-0.0388 0.164451,0 0.278506,0.27851 0.05039,0.54375 0.328904,0.82226 0.03876,0.0388 0.12569,-0.0388 0.164452,0 0.146595,0.1466 0.07713,0.48316 0.164451,0.65781 0.164024,0.32805 0.493784,0.65866 0.657807,0.98671 0.131205,0.26241 -0.138194,1.67078 0,1.80897 0.03876,0.0388 0.125691,-0.0388 0.164452,0 0.06408,0.0641 0,0.55745 0,0.65781 0,0.36222 0.164452,0.23431 0.164452,0.49335"
       id="path14710" />
    <path
       style="fill:none;stroke:#000000;stroke-width:1;stroke-dasharray:none;stroke-opacity:1"
       d="m 77.292358,105.08472 c -0.04253,-0.67377 0.749152,-0.8405 0.98671,-1.31562 0.07752,-0.15505 0.07527,-0.34471 0.164452,-0.49335 0.204811,-0.34136 0.640797,-0.62379 0.822259,-0.98672 0.06249,-0.12498 0.268507,-0.59741 0.328903,-0.6578 0.03876,-0.0388 0.125691,0.0388 0.164452,0 0.09292,-0.0929 0.206399,-0.5353 0.328904,-0.65781 0.03876,-0.0388 0.109635,0 0.164452,0 0.05482,-0.0548 0.121451,-0.1 0.164451,-0.16445 0.311751,-0.46762 0.879041,-1.261781 1.315617,-1.480067 0.263123,-0.131562 0.394684,-0.526246 0.657807,-0.657807 0.693018,-0.346509 1.455783,-0.860888 2.137873,-1.315614 0.355246,-0.236832 0.70303,-0.04523 0.986711,-0.328904"
       id="path14714" />
    <path
       style="fill:none;stroke:#000000;stroke-width:0.6;stroke-dasharray:none;stroke-opacity:1"
       d="m 101.96013,81.403655 c 0.91078,0.745249 0.25701,0.606562 0.49336,1.315614 0.0195,0.05857 0.4869,0.980255 0.49335,0.98671 0.0867,0.08667 0.24223,0.07778 0.32891,0.164452 0.0216,0.02156 -0.22943,0.89126 -0.16446,1.151163 0.0756,0.302238 0.49214,0.331337 0.32891,0.657807 -0.34221,0.684408 0.0113,-0.175805 -0.32891,0.164451 -0.166,0.166005 0,1.205704 0,1.480066 0,0.680858 0.19494,2.046436 0,2.631231 -0.15648,0.469461 -0.71682,0.834848 -0.82226,1.151163 -0.0347,0.104007 0.0347,0.224895 0,0.328903 -0.0245,0.07354 -0.12978,0.09511 -0.16445,0.164452 -0.10005,0.200099 -0.0904,0.600183 -0.16445,0.822259 -0.16416,0.492485 -0.45001,1.064471 -0.65781,1.480066 -0.13213,0.264273 0.0946,0.702929 0,0.98671 -0.0776,0.232889 -0.32039,1.800463 -0.3289,1.808972 -0.0388,0.03876 -0.12569,-0.03876 -0.16445,0 -0.17946,0.179457 -0.24439,0.897631 -0.3289,1.151163 -0.0462,0.138485 -1.313989,2.465143 -1.315619,2.466773 -0.03876,0.0388 -0.12569,-0.0388 -0.164452,0 -0.07752,0.0775 0.03467,0.2249 0,0.32891 -0.114911,0.34473 -0.313986,0.38875 -0.493355,0.6578 -0.237194,0.35579 -0.179861,0.85308 -0.328904,1.15117 -0.09578,0.19156 -0.233121,0.30179 -0.328903,0.49335 -0.04903,0.0981 0.07752,0.25138 0,0.32891 -0.03876,0.0388 -0.125691,-0.0388 -0.164452,0 -0.07752,0.0775 0.04903,0.23084 0,0.3289 -0.113644,0.22728 -0.328903,0.38263 -0.328903,0.65781"
       id="path15444" />
    <path
       style="fill:none;stroke:#000000;stroke-width:0.6;stroke-dasharray:none;stroke-opacity:1"
       d="m 103.60465,88.968439 c 0.48208,-0.744525 1.01461,-1.411791 1.80897,-1.808972 0.17541,-0.08771 0.48239,0.08771 0.65781,0 0.54394,-0.271974 0.7757,-1.292334 1.48006,-1.644518 0.23127,-0.115636 1.16571,0.149907 1.48007,-0.164452 0.0585,-0.05855 0.15867,-0.487569 0.16445,-0.493355 0.0388,-0.03876 0.13994,0.04903 0.16445,0 0.1317,-0.263385 -0.19871,-0.493356 0.16446,-0.493356"
       id="path15446" />
    <path
       style="fill:none;stroke:#000000;stroke-width:0.6;stroke-dasharray:none;stroke-opacity:1"
       d="m 78.936875,83.870431 c 0.217583,0.729771 0.95073,-0.243258 1.315615,0 0.182332,0.121555 0.428762,1.744374 0.493355,1.80897 0.153612,0.153611 0.66865,0.175291 0.822261,0.328903 0.08222,0.08223 0.08222,0.246679 0.164452,0.328904 0.253154,0.253153 0.733557,0.404653 0.986711,0.657807 0.238895,0.238897 -0.433348,0.882269 -0.164452,1.151162 0.274653,0.274654 1.358707,0.0431 1.644518,0.328904 0.164451,0.164454 -0.164452,0.822261 0,0.986713 0.109635,0.109633 0.548171,-0.109635 0.657807,0 0.03876,0.03876 -0.03876,0.12569 0,0.164452 0.07752,0.07752 0.25138,-0.07753 0.328903,0 0.08668,0.08667 0.07778,0.242228 0.164452,0.328903 0.05482,0.05482 0.438539,0.109633 0.493355,0.164452 0.19186,0.19186 -0.19186,0.959302 0,1.151162 0.03876,0.03876 0.125691,-0.03876 0.164452,0 0.104315,0.104315 -0.06846,0.520886 0,0.657807 0.09579,0.191567 0.233122,0.30179 0.328904,0.493356 0.21927,0.438539 -0.219268,1.205979 0,1.644517 0.407535,0.815073 0.552145,1.926553 0.98671,2.795683 0.577083,1.154166 1.072452,2.144898 1.644521,3.289034 0.117184,0.23437 0.06494,1.2161 0.164451,1.31562 0.03876,0.0388 0.125691,-0.0388 0.164452,0 0.07752,0.0775 -0.07752,0.25138 0,0.3289 0.03876,0.0388 0.12569,-0.0388 0.164452,0 0.01939,0.0194 0.493355,0.96361 0.493355,0.98671"
       id="path15448" />
    <path
       style="fill:none;stroke:#000000;stroke-width:0.6;stroke-dasharray:none;stroke-opacity:1"
       d="m 85.843852,89.955149 c 0.05482,-0.274087 0.06631,-0.560543 0.164452,-0.822259 0.414354,-1.104939 0.326623,0.182708 0.493355,-1.151165 0.02811,-0.224853 -0.106055,-1.978787 0,-2.137873 0.100495,-0.150741 0.590458,-0.455752 0.657808,-0.657807 0.08068,-0.242048 0.125531,-1.393457 0,-1.644517 -0.129345,-0.258691 -0.164452,-0.18645 -0.164452,-0.493356"
       id="path15450" />
    <path
       style="fill:none;stroke:#000000;stroke-width:0.7;stroke-dasharray:none;stroke-opacity:1"
       d="m 99.657806,135.67276 c 0.822264,0 1.644944,-0.0265 2.466774,0 2.10505,0.0679 3.99316,0.16088 6.08472,0 0.32794,-0.0252 0.66228,0.0541 0.98671,0 0.66684,-0.11114 1.30075,-0.35883 1.97342,-0.49336 0.34349,-0.0687 0.84141,-0.01 1.15117,-0.16445 0.32565,-0.16283 0.59697,-0.56037 0.98671,-0.65781 0.4335,-0.10838 0.92371,-0.2974 1.31561,-0.49336 0.13868,-0.0693 0.19023,-0.25956 0.32891,-0.3289 0.11642,-0.50142 0.45565,-0.0634 0.6578,-0.16445 0.10608,-0.053 2.10912,-1.28685 2.13788,-1.31561 0.0388,-0.0388 -0.0388,-0.1257 0,-0.16446 0.0548,-0.0548 0.43854,-0.10963 0.49335,-0.16445 0.0388,-0.0388 -0.0388,-0.12569 0,-0.16445 0.0775,-0.0775 0.23085,0.049 0.3289,0 0.68442,-0.3422 -0.1758,0.0113 0.16446,-0.3289 0.0548,-0.0548 0.43854,-0.10964 0.49335,-0.16446 0.0388,-0.0388 -0.0245,-0.11542 0,-0.16445 0.18181,-0.36361 0.10207,-0.051 0.32891,-0.16445 0.22026,-0.11013 0.22787,-0.39232 0.3289,-0.49335 0.21927,-0.21927 0.16445,0.27408 0.16445,-0.16446"
       id="path17634" />
    <path
       style="fill:none;stroke:#000000;stroke-width:0.7;stroke-dasharray:none;stroke-opacity:1"
       d="m 97.848837,126.299 c 1.339924,-0.14261 2.837563,0.26013 4.111293,-0.16445 0.55976,-0.18659 1.22465,0.0303 1.80897,-0.16445 0.50108,-0.16703 1.87659,0.0323 2.46678,-0.16445 0.23257,-0.0775 0.41998,-0.26945 0.65781,-0.32891 0.15954,-0.0399 0.33734,0.052 0.49335,0 0.37114,-0.12371 0.6513,-0.38155 0.98671,-0.49335 0.24179,-0.0806 0.59503,-0.0508 0.82226,-0.16446 0.26675,-0.13337 0.54263,-0.35353 0.82226,-0.49335 0.0981,-0.049 0.25138,0.0775 0.3289,0 0.0388,-0.0388 -0.049,-0.13994 0,-0.16445 0.0981,-0.049 0.23085,0.049 0.32891,0 0.049,-0.0245 -0.0388,-0.12569 0,-0.16445 0.0867,-0.0867 0.21927,-0.10964 0.3289,-0.16446 0.0981,-0.049 0.25138,0.0775 0.3289,0 0.0388,-0.0388 -0.0388,-0.12569 0,-0.16445 0.14852,-0.14851 0.62632,-0.23093 0.82227,-0.3289 0.21093,-0.10547 0.43885,-0.42037 0.6578,-0.49336 0.10401,-0.0347 0.2249,0.0347 0.32891,0 0.5133,-0.1711 -0.0548,-0.10963 0.16445,-0.3289 0.11513,-0.11513 0.65286,-0.2442 0.82226,-0.3289 0.19734,-0.0987 0.29601,-0.39469 0.49335,-0.49336 0.049,-0.0245 0.12569,0.0388 0.16445,0 0.0388,-0.0388 -0.0388,-0.12569 0,-0.16445 0.0168,-0.0168 0.7561,-0.44925 0.82226,-0.49336 0.50853,-0.33901 1.97342,-1.87583 1.97342,-1.97342"
       id="path17636" />
    <path
       style="fill:none;stroke:#000000;stroke-width:0.7;stroke-dasharray:none;stroke-opacity:1"
       d="m 97.848837,118.24086 c 0.79113,-0.0269 1.713079,0.0509 2.466773,-0.16445 0.48592,-0.13883 1.06106,-0.51814 1.48007,-0.65781 0.35407,-0.11802 0.79399,-0.15032 1.15116,-0.3289 0.75263,-0.37632 -0.69783,0.0682 0.49336,-0.3289 0.24908,-0.083 0.56768,-0.0796 0.82226,-0.16446 0.31556,-0.10518 0.54875,-0.3566 0.82226,-0.49335 0.53861,-0.26931 1.11133,-0.55567 1.64451,-0.82226 0.24479,-0.1224 0.43852,-0.51161 0.65781,-0.65781 0.0826,-0.055 0.38328,-0.0911 0.49336,-0.16445 0.38406,-0.25604 1.62647,-1.44398 1.80897,-1.80897 0.0245,-0.049 -0.0388,-0.12569 0,-0.16445 0.34025,-0.34026 -0.0133,0.51996 0.3289,-0.16445 0.0498,-0.0997 0.0955,-0.42445 0.16445,-0.49336 0.0585,-0.0585 0.48757,-0.15867 0.49336,-0.16445 0.0388,-0.0388 -0.0245,-0.11542 0,-0.16445 0.11378,-0.22756 0.6578,-0.34849 0.6578,-0.65781"
       id="path17638" />
    <path
       style="fill:none;fill-opacity:1;stroke:#000000;stroke-width:0.7;stroke-dasharray:none;stroke-opacity:1"
       d="m 99.328907,140.11295 c 0.5257,-0.0322 0.877963,0.0186 1.315613,0.16446 0.21927,0.0731 0.44724,0.22361 0.65781,0.3289 0.0981,0.049 0.25138,-0.0775 0.3289,0 0.0388,0.0388 -0.0388,0.12569 0,0.16445 0.0775,0.0775 0.25138,-0.0775 0.3289,0 0.0388,0.0388 -0.0388,0.12569 0,0.16445 0.076,0.076 0.39407,-0.0496 0.49336,0 0.49427,0.24714 1.15025,0.41068 1.64452,0.65781 0.14709,0.0736 0.33734,-0.052 0.49335,0 0.0735,0.0245 0.0951,0.12978 0.16446,0.16445 0.25939,0.1297 1.19992,0.0944 1.48006,0.16445 0.0752,0.0188 0.0893,0.14565 0.16445,0.16446 0.15954,0.0399 0.3321,-0.0323 0.49336,0 0.29255,0.0585 0.57704,0.24716 0.82226,0.3289 0.29601,0.0987 0.6907,-0.0987 0.98671,0 1.36754,0.45585 4.77426,0.16445 6.41362,0.16445"
       id="path17771" />
  </g>
</svg>
